<mxfile host="app.diagrams.net" modified="2023-05-19T19:39:32.889Z" agent="Mozilla/5.0 (Windows NT 10.0; Win64; x64) AppleWebKit/537.36 (KHTML, like Gecko) Chrome/113.0.0.0 Safari/537.36 Edg/113.0.1774.42" etag="2xbr-MKBLgWy2YPN2H5C" version="21.3.2" type="github">
  <diagram name="Page-1" id="ML02WG9aseFlaHm6EYre">
    <mxGraphModel dx="1235" dy="684" grid="1" gridSize="10" guides="1" tooltips="1" connect="1" arrows="1" fold="1" page="1" pageScale="1" pageWidth="827" pageHeight="1169" math="0" shadow="0">
      <root>
        <mxCell id="0" />
        <mxCell id="1" parent="0" />
        <mxCell id="NDqPuZzzdi_j6TGSKSs3-14" value="True Class" style="rounded=0;whiteSpace=wrap;html=1;rotation=-90;fontStyle=1;fontSize=20;strokeColor=none;fontColor=#333333;" parent="1" vertex="1">
          <mxGeometry x="-10" y="420" width="385" height="42.5" as="geometry" />
        </mxCell>
        <mxCell id="NDqPuZzzdi_j6TGSKSs3-1" value="&lt;b&gt;&lt;font style=&quot;font-size: 20px;&quot;&gt;&lt;font color=&quot;#ffffff&quot;&gt;True Positive&lt;br&gt;(TP)&lt;/font&gt;&lt;br&gt;&lt;/font&gt;&lt;/b&gt;" style="html=1;fillColor=#179c7d;strokeColor=#333333;shadow=0;fontSize=12;align=center;fontStyle=0;whiteSpace=wrap;rounded=0;container=0;" parent="1" vertex="1">
          <mxGeometry x="275.625" y="249.625" width="187.50000000000003" height="187.50000000000003" as="geometry" />
        </mxCell>
        <mxCell id="NDqPuZzzdi_j6TGSKSs3-2" value="&lt;font color=&quot;#ffffff&quot; style=&quot;font-size: 20px;&quot;&gt;&lt;b style=&quot;&quot;&gt;False Positive&lt;br&gt;(FP)&lt;/b&gt;&lt;/font&gt;" style="html=1;fillColor=#5cb9a4;strokeColor=#333333;shadow=0;fontSize=12;align=center;fontStyle=0;whiteSpace=wrap;rounded=0;container=0;" parent="1" vertex="1">
          <mxGeometry x="472.50000000000006" y="249.625" width="187.50000000000003" height="187.50000000000003" as="geometry" />
        </mxCell>
        <mxCell id="NDqPuZzzdi_j6TGSKSs3-3" value="&lt;b style=&quot;border-color: var(--border-color); font-size: 20px;&quot;&gt;&lt;font color=&quot;#ffffff&quot;&gt;False Negative&lt;br style=&quot;border-color: var(--border-color);&quot;&gt;(FN)&lt;/font&gt;&lt;/b&gt;" style="html=1;fillColor=#5cb9a4;strokeColor=#333333;shadow=0;fontSize=12;align=center;fontStyle=0;whiteSpace=wrap;rounded=0;container=0;" parent="1" vertex="1">
          <mxGeometry x="275.625" y="446.50000000000006" width="187.50000000000003" height="187.50000000000003" as="geometry" />
        </mxCell>
        <mxCell id="NDqPuZzzdi_j6TGSKSs3-4" value="&lt;b style=&quot;border-color: var(--border-color);&quot;&gt;&lt;font color=&quot;#ffffff&quot; style=&quot;border-color: var(--border-color); font-size: 20px;&quot;&gt;True Negative&lt;br style=&quot;border-color: var(--border-color);&quot;&gt;(TN)&lt;/font&gt;&lt;/b&gt;" style="html=1;fillColor=#179c7d;strokeColor=#333333;shadow=0;fontSize=12;align=center;fontStyle=0;whiteSpace=wrap;rounded=0;container=0;" parent="1" vertex="1">
          <mxGeometry x="472.50000000000006" y="446.50000000000006" width="187.50000000000003" height="187.50000000000003" as="geometry" />
        </mxCell>
        <mxCell id="NDqPuZzzdi_j6TGSKSs3-5" value="&lt;font style=&quot;font-size: 18px;&quot;&gt;Positive&lt;/font&gt;" style="html=1;fillColor=#a6bbc8;strokeColor=#333333;shadow=0;fontSize=14;fontColor=#333333;align=center;fontStyle=1;whiteSpace=wrap;horizontal=0;rounded=0;container=0;" parent="1" vertex="1">
          <mxGeometry x="210" y="249.625" width="56.25" height="187.50000000000003" as="geometry" />
        </mxCell>
        <mxCell id="NDqPuZzzdi_j6TGSKSs3-6" value="&lt;font style=&quot;font-size: 18px;&quot;&gt;Negative&lt;/font&gt;" style="html=1;fillColor=#a6bbc8;strokeColor=#333333;shadow=0;fontSize=14;fontColor=#333333;align=center;fontStyle=1;whiteSpace=wrap;horizontal=0;rounded=0;container=0;" parent="1" vertex="1">
          <mxGeometry x="210" y="446.50000000000006" width="56.25" height="187.50000000000003" as="geometry" />
        </mxCell>
        <mxCell id="NDqPuZzzdi_j6TGSKSs3-7" value="&lt;font style=&quot;font-size: 18px;&quot;&gt;Positive&lt;/font&gt;" style="html=1;fillColor=#a6bbc8;strokeColor=#333333;shadow=0;fontSize=14;fontColor=#333333;align=center;fontStyle=1;whiteSpace=wrap;rounded=0;container=0;" parent="1" vertex="1">
          <mxGeometry x="275.625" y="184" width="187.50000000000003" height="56.25" as="geometry" />
        </mxCell>
        <mxCell id="NDqPuZzzdi_j6TGSKSs3-8" value="&lt;font style=&quot;font-size: 18px;&quot;&gt;Negative&lt;/font&gt;" style="html=1;fillColor=#a6bbc8;strokeColor=#333333;shadow=0;fontSize=14;fontColor=#333333;align=center;fontStyle=1;whiteSpace=wrap;rounded=0;container=0;" parent="1" vertex="1">
          <mxGeometry x="472.50000000000006" y="184" width="187.50000000000003" height="56.25" as="geometry" />
        </mxCell>
        <mxCell id="NDqPuZzzdi_j6TGSKSs3-23" value="&lt;font color=&quot;#333333&quot;&gt;Predicted Class&lt;/font&gt;" style="rounded=0;whiteSpace=wrap;html=1;rotation=0;fontStyle=1;fontSize=20;strokeColor=none;" parent="1" vertex="1">
          <mxGeometry x="275.63" y="137" width="385" height="42.5" as="geometry" />
        </mxCell>
        <mxCell id="1DCUln7u0UJ55K459sMr-1" value="" style="shape=image;verticalLabelPosition=bottom;labelBackgroundColor=default;verticalAlign=top;aspect=fixed;imageAspect=0;image=data:image/png,iVBORw0KGgoAAAANSUhEUgAABPQAAAJaCAYAAACofxnLAAAAAXNSR0IArs4c6QAAAARnQU1BAACxjwv8YQUAAAAJcEhZcwAAEnQAABJ0Ad5mH3gAAIQJSURBVHhe7d1vaFx5oub3SwhhQxKyhMAmr7JvAvtqWaI3qxdeBCZmm+CwYJFcF2lo0YERhhFrMqKXUZqlxYBRJ40wrPALr3zpKMO2MMyVXzTy0vguTdSsURMcNTRXDYNMDMXFRGAoMEuB4ZfzqzpVKpWec+qcU6fKfs58P/Dl3nHbKrmqTv15XKr6swAAAAAAAADABoMeAAAAAAAAYIRBDwAAAAAAADDCoAcAAAAAAAAYYdADAAAAAAAAjDDoAQAAAAAAAEYY9AAAAAAAAAAjDHoAAAAAAACAEQY9AAAAAAAAwAiDHgAAAAAAAGCEQQ8AAAAAAAAwModB7yRsLyyEhaTtF+kvfahebPe+z4WFtXDwOv21PyXvzsPx1xth5aPF/vlw7UbY/Sn9b2iMk/v943Hh1wfhPP01AAAAAADgg0Fv1J/yoPeuHQ7upkPeSB/8ZYbSGPQAAAAAAPBWbtB7cxaOHm+F9Y9b4ca1weizGG7cboX1+wfhRI5gDHoO2o9X+n/3a2th/+dO+qvTOX10M/marbD/Mv2F6PwwrMXT+eo4/YWCOqdhPw6O90/SX7jq/MlaevmVKGvUetcN7ef7Yes3I9f168th9fO9cFz3deP1Qf88KVX16yiDHgAAAAAA3ooNevFHMR+uhqUro8J4a+HwykLAoPfhOw27N/uX0crjdvpr0zoPh3fj19wOx+/SX4p+7J/Ha98Wn5LOn++G1ev976/uQW/xy+PQTf/80Nvk/Pj06qsVL1oK69/WdT4lqgx617bC8ZVvvBgGPQAAAAAAvBUY9Lrh5P7ycEhYurMdDr4/CWevO6HzphPOX56Eoyc7YeN2HEDUEMag98EbvGpuYTHs1PWeee+O+5f73cNLo9HZN63kdG6G3V/SX8jReXkUdu8spZdJWs6gF7r96+Skzl/shOXe1xOX87vTsHsrPa3rq2H3+7Nwng5n3VcnYf+LwbGwnFyfKy5q49515fd5pfOTsPM/9L+3tSfVpzgGPQAAAAAAvE0e9H7eDTd7A8ZiWPvm7OqrmUa0n+6FZwx6foavEKvx7/1yP7SSr3nz0Wn6C1EnPPttPJ2tcJRzRTr/YSdsfDIy5F1vhVb6CsLcQa+Q+D30X323fOl76xv90eMD+SK8kYH71m44HX314Yx1vtsIizWcLoMeAAAAAADeJg56/fdBiwPHdjipNCIw6H3wZjDonX/b//HX7R/TX+g5CTvx/eh+dRDyfmB1ODgtLIWVewfhtNMOB79Of23aQe+X3f6r865thGdv0l8bKvijx2+PwlbvffUW53edHr5ycDFsfDfdexwy6AEAAAAA4G3ioDd88v/xfjhLf60cBr0P3gwGveOv+l/v0nsqtg/CanI6iw/yR7mTh8tjH7JyXtOgd/F11KvzBt/flQ/yuKIbju71v87lVyDOzvD9AWt4VSCDHgAAAAAA3oq/Qq/y2HN10Ov8chi2Rz49dPGj+Cm5h+F00guPXp+Gw96n7C5ffEBH75NHd8LhLwVetfTuPJw82Q7rt2/0f3QxaenWatj4+jicx5Gk4KDXbR+H/XvrofXR4IMTlsLynY2w9/1Z6OSNLb3T3wkbd0a+/2s3Qiv+2R/auT/OPEl8v7m9z1dHvqf0fL23H45eqvNmZCTLqvDgc/HKtvIVeT+9ega9bnL59n58XL46L1Fi0G3/YbX/e/POo3edcPb92Cfl9j4VOl7njkK76AXeTY6h3vlb8NV5r0/CwX1x/Xze/04Z9AAAAAAA8Db5PfRe7YeV3iiwEBY/3Q0npX/a7/Kg136ynv1pudfXw2HGTzqe/b41HOF0+Z882v3jflgffFKqaPH2Tjj5ftKg0w2nX+d/2u/i3f1w9jb97aPah7mnX3lceXsW9j8b++CIKy2G1ldH/dFyqMZBr3MSDh7shJ1BX671h7NPNi5+LWnjk/h1b4a1L0d+74PDcDpx2Kpj0OuEw8/6X+Pmw4xX1f0yeL/ISa/QGxn0riXXm/TXRk26vpUZyDtP1/t/5uakV+d1w9njnOMrXg8enIQjBj0AAAAAAKxNHvQS7SdrF2PatVbYfHKa/0q0Sy4Gvc2v4iuklsL61yehPRi93rbDyaOLr7/422dBbYa9VxUlpx1f2XT2+mIB6r46CluDTyXNeuVV+yCsDV4hdWsz7L9oh87gS7w9D6dPNkMr+e+L1wavaNJjy+nXg1FxOWw+Hvk7dM/D2fc7YSU9jZtfHV9+td3IJ6cufroTjl+NfP+d5M8+3w9b9y5/Gmwh3ZOwM/y7J5dL/J6Gf7F43pyE/d9dDKHL90/0qwDr/pHbn3Z6p9n6ZvSHtM/D4d34feoBLF8Ng97ww13Ww6G6jkTd5LrU+z0T3kNvZBxcWNi+8vfpvtjpXZ96//3Weu+Vm4NPyu19om1yuRzc3w6HRc7reN1JX/24/jR/TR89Tpe/2A8nrzqhmx6n3den4aB3XVhMrufp98agBwAAAACApUKDXtR+2h+9+iNG0vWVsPX4ZOxVX8rFoBdfnbX9XI0S8ZNDBz/auxGeid9y8u1+9o/kvrx4FeHVH0m8+FTThVvb4US9ei56tZ+OWjExbA0+TGFhOWy/kLNYbzTq/56VsP8q/bUoHbhyx6QKTh+ln7YaP5F19PTGXAw9y/rHW2se9PqvXlsMOz+lvxC9O+5fDzIG23zTDnrxPe/614HFL8fG1ku64fjL9LqS+Sm3l4ezK4PeyMia+WrNEro/bPVP69pWOM7+xkN48yxspMdn5nCbaD9O34svxqAHAAAAAIClwoNeT2fwKp90EIhdXw273+e9/9vIoPfZYfaY83I/tNLfV/7DM87C/sf9P3vlAxeGPzJ8M3uIS50+zHq/wIuh52bOWDI6PF16ddrwvdn0WFlJ9zj9pNWFsPZkwizzLjl/ej/umpw/ahCrddAbfGDE2N81vXwvv2qvqCkHveF1IGPQHDX6as7eqx6Pw9nrTui86YTzl8fDVzyufLLS/z1jg97wx2OzXi1aSnt4uckP8RjRfpx+PzeT7yfvaj7yij8GPQAAAAAAPJUb9AZeX/5RztjSZ1mvRroY9Na+zZkPBq/gSio/6GUPPuffpq9Iiu8/lv5apqwPRRh+b4sTv7fhBw58dZz+SuLNYVjv/fn4o5CH4Sx/Vyzmx3Ij4dk3rf7vV+fDVIPeeTj6evQ98bbCWhyMbqyGreGvJX3eH5xavx35taRnOa8svDDdoDccaj/ZD3k/SDvQ/Xl3+OPTqqXPDkN7cP5fOj/jq0H7v0cOp2UNf0x47BWfV6Q/zpz83iKfusuHYgAAAAAA4K3aoDfw+jjs3rn4QIbFuwehfeVHcC9/KEa2Yr+v22mH0+fH4fBxHITiJ962Ln2y6/jgMxwvivyoZ9agNxy8SjQ2llx+H8IbYe3+QTiWnz5bzHny9Xpf6+P9UOg1b8O/29X3fJtq0Bt537nyFX3F4hSD3rvkepWOc5Peg+6Szlk4+nojrN4aXL/jp9Ouh+2n/fePHJ7/d0ff+/DiOlzo02gnOLmfXq/zXtnaU+50GfQAAAAAAPA23aDX0w1n31yMVVc/TKCeQa/z037YuD0y3GWVNegVGYJmOOhFnV8OwtYnlz+RdvH2Rtj7sfysMhyUio4yWX+3qM4fuU1fuXb51Zjpj0RX+kCMqPqg132evgddnT/unDh5kP4I9qVXxBW9rhcw8iPVk0e6cqfLoAcAAAAAgLcaBr1oZHC58oqx6Qe97ovt9MMmFsLSJxth+/FhOH5+GtpvOqHT+zHf7MFnOF6M/ghslomDXg2DV6Lbjp9yuhZuDH+sczGsPDrNeW++qz6YV+iN6f9o783L71XXeRY24te/d1Tq73ih6qA3eD+/aU5buXjPxq0fRr/qyHX4x/SXKoofhtG/vLbC0cRvvNzpMugBAAAAAOCtpkFv5D3argxG0w56F2/iv/Iwa/TKHnxOH6Xvn1Zg+Op8t9H/vePD1siPlU471Fzyrh0Ov0g/qXbi+6RdVm7wCeknz2acD7UNeoP3kBv7ntJX7a3+ocg72CkVB72Ry62OH4EdGry33ZVPnr0Y+qp9+MfAyBBZ6FOBL46Ryad78T5/DHoAAAAAAHiqbdA7/iodCa586MKUg95wbGqF/Zfpr40b/eTOscHnYvhayf7zPZ1w+Fn6Na4MWxeD0uKXxzW+0isx8mEguR8aMm7kgzYmvjfcyKfcyg9NqGvQG7xf3aX3lRuMvYth56f0F0qrNujN5Mdt37XDwd30x20fXj0vhx/AEY+DK+8nWVCpH7eNRgbAT/bDWd7pjlxvGPQAAAAAAPA0YdA7D4f3d8Nxe8KE1T4Ia+kAcXXwqmvQy/6E2UsfODE++IyMI/pDO/oufQ0xbHWerqf/bTls/5gzssRX3X39rPhQMjLoXf7xzUm64eR+Oh5dS77fnFf3Df9uye87VINdXYPey/3QSr7O5dEw41V7pVQb9IYfKvGr5HJPf20q7zrh+H76ispryd9Hfarzq/2w0jsvF8Ly/ePeB2iU9mI7vS6uhoOC3/jFeLkY1p5k/KGRMbIXgx4AAAAAAJYmDnqDIWX43nUvzsJ5fO+6N+fh7MXR5feCk4PRlINeOAt7t9Kvf2szHPx8HrrpSNI9Pw2HX62ExWsrYSX9UUc1+Jx/ezHWLX66E45ejn6Ns3D0cDUsLSyGrXub/a+hhq1LY8hSWH14FM5eXyxU8dN3T55sh9XryX8fG0rOv91IP9X2PHRGRq142odfThiI8rxNzrPBeXOtFTYfn4T2yAl0X52E/d+1Jg89NQ16gx9ZHn9fuZ14/ZhqVKsy6F38+Kt8VWKW14dh6/O9cPhzO31/xkS3E9ovDsL28BOdl5PraPY6OToOL93ZvXR9C++64fzlcXLcbOtxNTH88fUrr3bNcx4Oh9fPxbDyILl+nqffY+80j/qfSJ1cz7a+6H9vDHoAAAAAAHgqPOhNavH2ZjiUrxKbdtALlz4U40rXWmHnxdmEwacbTh+tDEeWqy2GtW/OeqfT/98Zw9bb07D76cgrnGSLYeXry+/1N/wAi6yurYTdn7MHolznR2F70qf/xrHvac6cVtcr9GamwqA3+CCOpFLvnzc8LzK6vhr2Jl5W3XD2eD0sqT8/LOu8HnmPu0Lvnzdi0vXz2lrY/2N8ZWf6vxn0AAAAAACwNPk99N51wtnzg7B3bz20Pl4eGSkWw43brbB+by8cvGhfvALpiukHvZ7Xx2Hv89WwHF8BF3/f9eWw+vleOO6NIsUGn84vh2FHfI2jl+lsMmnQi951Q/v5ftj6TevSp9TeuL0aNh4chBP15+IrCR9vhfVL599SWP54PWw9PgpnpVYbIV5G3/e/p+Hfrfc9Ffz6TRz0ftpJB9yxT9ydpNsOR+OX1bUboXVnI+w8PS33I7SvT8LBg42wemvwyr6FsPhRK7nO7eQcM+krGpPfW+qVhQPJdeH06U7YuHPx/S/dSq6bX19cDxj0AAAAAADwVtuHYgAAAAAAAACYPQY9AAAAAAAAwAiDHgAAAAAAAGCEQQ8AAAAAAAAwwqAHAAAAAAAAGGHQAwAAAAAAAIww6AEAAAAAAABGGPQAAAAAAAAAIwx6AAAAAAAAgBEGPQAAAAAAAMAIgx4AAAAAAABghEEPAAAAAAAAMMKgBwAAAAAAABhh0AMAAAAAAACMMOgBAAAAAAAARhj0AAAAAAAAACMMegAAAAAAAIARBj0AAAAAAADACIMeAAAAAAAAYIRBDwAAAAAAADDCoAcAAAAAAAAYYdADAAAAAAAAjDDoAQAAAAAAAEYY9AAAAAAAAAAjuYPe3/mXn5Nx//n//k/JvP/sf/2fybi//ev/kcz7Tz7+78i4/+i//0dk3n/4j/4bMu4/+Pv/NZn37/9X/yUZ9+/9p/8xmfdnf/ZnZNysMeg1ODUQkVdqJCKf1EBEXqmRiHxSAxF5pUYi8kkNROSVGonIJzUQkVdqJCKfZo1Br8GpgYi8UiMR+aQGIvJKjUTkkxqIyCs1EpFPaiAir9RIRD6pgYi8UiMR+TRrDHoNTg1E5JUaicgnNRCRV2okIp/UQEReqZGIfFIDEXmlRiLySQ1E5JUaicinWWPQa3BqICKv1EhEPqmBiLxSIxH5pAYi8kqNROSTGojIKzUSkU9qICKv1EhEPs0ag16DUwMReaVGIvJJDUTklRqJyCc1EJFXaiQin9RARF6pkYh8UgMReaVGIvJp1hj0GpwaiMgrNRKRT2ogIq/USEQ+qYGIvFIjEfmkBiLySo1E5JMaiMgrNRKRT7PGoNfg1EBEXqmRiHxSAxF5pUYi8kkNROSVGonIJzUQkVdqJCKf1EBEXqmRiHyaNQa9BqcGIvJKjUTkkxqIyCs1EpFPaiAir9RIRD6pgYi8UiMR+aQGIvJKjUTk06wx6DU4NRCRV2okIp/UQEReqZGIfFIDEXmlRiLySQ1E5JUaicgnNRCRV2okIp9mjUGvwamBiLxSIxH5pAYi8kqNROSTGojIKzUSkU9qICKv1EhEPqmBiLxSIxH5NGsMeg1ODUTklRqJyCc1EJFXaiQin9RARF6pkYh8UgMReaVGIvJJDUTklRqJyKdZY9BrcGogIq/USEQ+qYGIvFIjEfmkBiLySo1E5JMaiMgrNRKRT2ogIq/USEQ+zRqDXoNTAxF5pUYi8kkNROSVGonIJzUQkVdqJCKf1EBEXqmRiHxSAxF5pUYi8mnWGPQanBqIyCs1EpFPaiAir9RIRD6pgYi8UiMR+aQGIvJKjUTkkxqIyCs1EpFPs8ag1+DUQEReqZGIfFIDEXmlRiLySQ1E5JUaicgnNRCRV2okIp/UQEReqZGIfJo1Br0GpwYi8kqNROSTGojIKzUSkU9qICKv1EhEPqmBiLxSIxH5pAYi8kqNROTTrDHoNTg1EJFXaiQin9RARF6pkYh8UgMReaVGIvJJDUTklRqJyCc1EJFXaiQin2aNQa/BqYGIvFIjEfmkBiLySo1E5JMaiMgrNRKRT2ogIq/USEQ+qYGIvFIjEfk0awx6DU4NROSVGonIJzUQkVdqJCKf1EBEXqmRiHxSAxF5pUYi8kkNROSVGonIp1lj0GtwaiAir9RIRD6pgYi8UiMR+aQGIvJKjUTkkxqIyCs1EpFPaiAir9RIRD7NGoNeg1MDEXmlRiLySQ1E5JUaicgnNRCRV2okIp/UQEReqZGIfFIDEXmlRiLyadYY9BqcGojIKzUSkU9qICKv1EhEPqmBiLxSIxH5pAYi8kqNROSTGojIKzUSkU+zxqDX4NRARF6pkYh8UgMReaVGIvJJDUTklRqJyCc1EJFXaiQin9RARF6pkYh8mjUGvQanBiLySo1E5JMaiMgrNRKRT2ogIq/USEQ+qYGIvFIjEfmkBiLySo1E5NOsMeg1ODUQkVdqJCKf1EBEXqmRiHxSAxF5pUYi8kkNROSVGonIJzUQkVdqJCKfZo1Br8GpgYi8UiMR+aQGIvJKjUTkkxqIyCs1EpFPaiAir9RIRD6pgYi8UiMR+TRrDHoNTg1E5JUaicgnNRCRV2okIp/UQEReqZGIfFIDEXmlRiLySQ1E5JUaicinWWPQa3BqICKv1EhEPqmBiLxSIxH5pAYi8kqNROSTGojIKzUSkU9qICKv1EhEPs0ag16DUwMReaVGIvJJDUTklRqJyCc1EJFXaiQin9RARF6pkYh8UgMReaVGIvJp1hj0GpwaiMgrNRKRT2ogIq/USEQ+qYGIvFIjEfmkBiLySo1E5JMaiMgrNRKRT7PGoNfg1EBEXqmRiHxSAxF5pUYi8kkNROSVGonIJzUQkVdqJCKf1EBEXqmRiHyaNQa9BqcGIvJKjUTkkxqIyCs1EpFPaiAir9RIRD6pgYi8UiMR+aQGIvJKjUTk06wx6DU4NRCRV2okIp/UQEReqZGIfFIDEXmlRiLySQ1E5JUaicgnNRCRV2okIp9mjUGvwamBiLxSIxH5pAYi8kqNROSTGojIKzUSkU9qICKv1EhEPqmBiLxSIxH5NGsMeg1ODUTklRqJyCc1EJFXaiQin9RARF6pkYh8UgMReaVGIvJJDUTklRqJyKdZY9BrcGogIq/USEQ+qYGIvFIjEfmkBiLySo1E5JMaiMgrNRKRT2ogIq/USEQ+zRqDXoNTAxF5pUYi8kkNROSVGonIJzUQkVdqJCKf1EBEXqmRiHxSAxF5pUYi8mnWGPQanBqIyCs1EpFPaiAir9RIRD6pgYi8UiMR+aQGIvJKjUTkkxqIyCs1EpFPs8ag1+DUQEReqZGIfFIDEXmlRiLySQ1E5JUaicgnNRCRV2okIp/UQEReqZGIfJo1Br0GpwYi8kqNROSTGojIKzUSkU9qICKv1EhEPqmBiLxSIxH5pAYi8kqNROTTrDHoNTg1EJFXaiQin9RARF6pkYh8UgMReaVGIvJJDUTklRqJyCc1EJFXaiQin2aNQa/BqYGIvFIjEfmkBiLySo1E5JMaiMgrNRKRT2ogIq/USEQ+qYGIvFIjEfk0awx6DU4NROSVGonIJzUQkVdqJCKf1EBEXqmRiHxSAxF5pUYi8kkNROSVGonIp1lj0GtwaiAir9RIRD6pgYi8UiMR+aQGIvJKjUTkkxqIyCs1EpFPaiAir9RIRD7NGoNeg1MDEXmlRiLySQ1E5JUaicgnNRCRV2okIp/UQEReqZGIfFIDEXmlRiLyadYY9BqcGojIKzUSkU9qICKv1EhEPqmBiLxSIxH5pAYi8kqNROSTGojIKzUSkU+zxqDX4NRARF6pkYh8UgMReaVGIvJJDUTklRqJyCc1EJFXaiQin9RARF6pkYh8mjUGvQanBiLySo1E5JMaiMgrNRKRT2ogIq/USEQ+qYGIvFIjEfmkBiLySo1E5NOsMeg1ODUQkVdqJCKf1EBEXqmRiHxSAxF5pUYi8kkNROSVGonIJzUQkVdqJCKfZo1Br8GpgYi8UiMR+aQGIvJKjUTkkxqIyCs1EpFPaiAir9RIRD6pgYi8UiMR+TRrDHoNTg1E5JUaicgnNRCRV2okIp/UQEReqZGIfFIDEXmlRiLySQ1E5JUaicinWWPQa3BqICKv1EhEPqmBiLxSIxH5pAYi8kqNROSTGojIKzUSkU9qICKv1EhEPs0ag16DUwMReaVGIvJJDUTklRqJyCc1EJFXaiQin9RARF6pkYh8UgMReaVGIvJp1hj0GpwaiMgrNRKRT2ogIq/USEQ+qYGIvFIjEfmkBiLySo1E5JMaiMgrNRKRT7PGoNfg1EBEXqmRiHxSAxF5pUYi8kkNROSVGonIJzUQkVdqJCKf1EBEXqmRiHyaNQa9BqcGIvJKjUTkkxqIyCs1EpFPaiAir9RIRD6pgYi8UiMR+aQGIvJKjUTk06wx6DU4NRCRV2okIp/UQEReqZGIfFIDEXmlRiLySQ1E5JUaicgnNRCRV2okIp9mjUGvwamBiLxSIxH5pAYi8kqNROSTGojIKzUSkU9qICKv1EhEPqmBiLxSIxH5NGsMeg1ODUTklRqJyCc1EJFXaiQin9RARF6pkYh8UgMReaVGIvJJDUTklRqJyKdZY9BrcGogIq/USEQ+qYGIvFIjEfmkBiLySo1E5JMaiMgrNRKRT2ogIq/USEQ+zRqDXoNTAxF5pUYi8kkNROSVGonIJzUQkVdqJCKf1EBEXqmRiHxSAxF5pUYi8mnWGPQanBqIyCs1EpFPaiAir9RIRD6pgYi8UiMR+aQGIvJKjUTkkxqIyCs1EpFPs8ag1+DUQEReqZGIfFIDEXmlRiLySQ1E5JUaicgnNRCRV2okIp/UQEReqZGIfJo1Br0GpwYi8kqNROSTGojIKzUSkU9qICKv1EhEPqmBiLxSIxH5pAYi8kqNROTTrDHoNTg1EJFXaiQin9RARF6pkYh8UgMReaVGIvJJDUTklRqJyCc1EJFXaiQin2aNQa/BqYGIvFIjEfmkBiLySo1E5JMaiMgrNRKRT2ogIq/USEQ+qYGIvFIjEfk0awx6DU4NROSVGonIJzUQkVdqJCKf1EBEXqmRiHxSAxF5pUYi8kkNROSVGonIp1lj0GtwaiAir9RIRD6pgYi8UiMR+aQGIvJKjUTkkxqIyCs1EpFPaiAir9RIRD7NGoNeg1MDEXmlRiLySQ1E5JUaicgnNRCRV2okIp/UQEReqZGIfFIDEXmlRiLyadYY9BqcGojIKzUSkU9qICKv1EhEPqmBiLxSIxH5pAYi8kqNROSTGojIKzUSkU+zxqDX4NRARF6pkYh8UgMReaVGIvJJDUTklRqJyCc1EJFXaiQin9RARF6pkYh8mjUGvQanBiLySo1E5JMaiMgrNRKRT2ogIq/USEQ+qYGIvFIjEfmkBiLySo1E5NOsMeg1ODUQkVdqJCKf1EBEXqmRiHxSAxF5pUYi8kkNROSVGonIJzUQkVdqJCKfZo1Br8GpgYi8UiMR+aQGIvJKjUTkkxqIyCs1EpFPaiAir9RIRD6pgYi8UiMR+TRrDHoNTg1E5JUaicgnNRCRV2okIp/UQEReqZGIfFIDEXmlRiLySQ1E5JUaicinWWPQa3BqICKv1EhEPqmBiLxSIxH5pAYi8kqNROSTGojIKzUSkU9qICKv1EhEPs0ag16DUwMReaVGIvJJDUTklRqJyCc1EJFXaiQin9RARF6pkYh8UgMReaVGIvJp1hj0GpwaiMgrNRKRT2ogIq/USEQ+qYGIvFIjEfmkBiLySo1E5JMaiMgrNRKRT7PGoNfg1EBEXqmRiHxSAxF5pUYi8kkNROSVGonIJzUQkVdqJCKf1EBEXqmRiHyaNQa9BqcGIvJKjUTkkxqIyCs1EpFPaiAir9RIRD6pgYi8UiMR+aQGIvJKjUTk06wx6DU4NRCRV2okIp/UQEReqZGIfFIDEXmlRiLySQ1E5JUaicgnNRCRV2okIp9mjUGvwamBiLxSIxH5pAYi8kqNROSTGojIKzUSkU9qICKv1EhEPqmBiLxSIxH5NGsMeg1ODUTklRqJyCc1EJFXaiQin9RARF6pkYh8UgMReaVGIvJJDUTklRqJyKdZY9BrcGogIq/USEQ+qYGIvFIjEfmkBiLySo1E5JMaiMgrNRKRT2ogIq/USEQ+zRqDXoNTAxF5pUYi8kkNROSVGonIJzUQkVdqJCKf1EBEXqmRiHxSAxF5pUYi8mnWGPQanBqIyCs1EpFPaiAir9RIRD6pgYi8UiMR+aQGIvJKjUTkkxqIyCs1EpFPs8ag1+DUQEReqZGIfFIDEXmlRiLySQ1E5JUaicgnNRCRV2okIp/UQEReqZGIfJo1Br0GpwYi8kqNROSTGojIKzUSkU9qICKv1EhEPqmBiLxSIxH5pAYi8kqNROTTrDHoNTg1EJFXaiQin9RARF6pkYh8UgMReaVGIvJJDUTklRqJyCc1EJFXaiQin2aNQa/BqYGIvFIjEfmkBiLySo1E5JMaiMgrNRKRT2ogIq/USEQ+qYGIvFIjEfk0awx6DU4NROSVGonIJzUQkVdqJCKf1EBEXqmRiHxSAxF5pUYi8kkNROSVGonIp1lj0GtwaiAir9RIRD6pgYi8UiMR+aQGIvJKjUTkkxqIyCs1EpFPaiAir9RIRD7NGoNeg1MDEXmlRiLySQ1E5JUaicgnNRCRV2okIp/UQEReqZGIfFIDEXmlRiLyadYY9BqcGojIKzUSkU9qICKv1EhEPqmBiLxSIxH5pAYi8kqNROSTGojIKzUSkU+zxqDX4NRARF6pkYh8UgMReaVGIvJJDUTklRqJyCc1EJFXaiQin9RARF6pkYh8mjUGvQanBiLySo1E5JMaiMgrNRKRT2ogIq/USEQ+qYGIvFIjEfmkBiLySo1E5NOsMeg1ODUQkVdqJCKf1EBEXqmRiHxSAxF5pUYi8kkNROSVGonIJzUQkVdqJCKfZo1Br8GpgYi8UiMR+aQGIvJKjUTkkxqIyCs1EpFPaiAir9RIRD6pgYi8UiMR+TRrDHoNTg1E5JUaicgnNRCRV2okIp/UQEReqZGIfFIDEXmlRiLySQ1E5JUaicinWWPQa3BqICKv1EhEPqmBiLxSIxH5pAYi8kqNROSTGojIKzUSkU9qICKv1EhEPs0ag16DUwMReaVGIvJJDUTklRqJyCc1EJFXaiQin9RARF6pkYh8UgMReaVGIvJp1hj0GpwaiMgrNRKRT2ogIq/USEQ+qYGIvFIjEfmkBiLySo1E5JMaiMgrNRKRT7PGoNfg1EBEXqmRiHxSAxF5pUYi8kkNROSVGonIJzUQkVdqJCKf1EBEXqmRiHyaNQa9BqcGIvJKjUTkkxqIyCs1EpFPaiAir9RIRD6pgYi8UiMR+aQGIvJKjUTk06wx6DU4NRCRV2okIp/UQEReqZGIfFIDEXmlRiLySQ1E5JUaicgnNRCRV2okIp9mjUGvwamBiLxSIxH5pAYi8kqNROSTGojIKzUSkU9qICKv1EhEPqmBiLxSIxH5NGsMeg1ODUTklRqJyCc1EJFXaiQin9RARF6pkYh8UgMReaVGIvJJDUTklRqJyKdZY9BrcGogIq/USEQ+qYGIvFIjEfmkBiLySo1E5JMaiMgrNRKRT2ogIq/USEQ+zRqDXoNTAxF5pUYi8kkNROSVGonIJzUQkVdqJCKf1EBEXqmRiHxSAxF5pUYi8mnWGPQanBqIyCs1EpFPaiAir9RIRD6pgYi8UiMR+aQGIvJKjUTkkxqIyCs1EpFPs8ag1+DUQEReqZGIfFIDEXmlRiLySQ1E5JUaicgnNRCRV2okIp/UQEReqZGIfJo1Br0GpwYi8kqNROSTGojIKzUSkU9qICKv1EhEPqmBiLxSIxH5pAYi8kqNROTTrM3+FAAAAAAAAADUhkEPAAAAAAAAMMKgBwAAAAAAABhh0AMAAAAAAACMMOgBAAAAAAAARhj0AAAAAAAAACMMegAAAAAAAIARBj0AAAAAAADACIMeAAAAAAAAYGQGg95Z2Lu1Fg7Pk//33UnYvr4TTvr/ASY6f7UZlh70L7XzJ2th7dt4YcIHx6A7jkF3HIPuOAbdcQy64xh0xzHojmPQHcfgn4oZDHrJFWZhIzzrJP/v64OwtrA9+crz5iwcP9kJG5/eCIv3J/zuF9thYWEht7UnOTc4r4/D7m+Ww1Lv9y6F5d/shuPX6X+rxXk4+PXV7+lyBc6TEScPl9I/txYOav1etXijffPRae//P7k/4fyM3nVD++fDsH9vPSxfr/Y9nn+7Fhbj3/HXB8k5mOPtWTi8H0+nf14u3VoP20/PQjf9z7WY9jqWfI8H91bCjWvx98br2HY4epX+t7mY8TE40DkVl8Vp6LxL//sl9R8Xpbw7DydPtsP67eTv1zutxXDjzn5yVzdB9yTs3Op/f9sv0l+bg7kdg1NeVzsvj8Le56vD68DC9eWw/UO84hVwfhjWB5e9us71rrvpf7/Sev8ByiXv+Tp2SYVjsKbbjUn3F/H6dPV86bf0sNy5U/a+Kft2/jwcfjb4PuZ1GeUrfQwmzn/cDeu3+ufJ4kcrYePxydXbw59208cfxb7mRLO8jYq3Ky8Owl5yu9L6aLF/+STH+PrDo9B+m/6eD9acjsF3nXD6ZCuspOdPvNy3nmTdD6aS+9ujx9th487gsWhyf/TpVtj/qYbrw7iqp1Xq/n02ZnYMZinzOGGe50+F06rzdr6693A/WOb2sMrj3oHkunL88OIyiS1+1AqtOzvhWD0EqnJaVW5bajavY/D8+V7/vInn5bUbYeXzvULPzac53ju/HIStwWn2Sq5vH7fC+rft9HdcNtVty3szv2Ow0vnT1NN6D+of9JInacMrzMv90MobaJL/vv6rjbD1+DCcvkoeOCY3HPKJ3ag/7oXl3z4L6vYyOn10M/sGp51cma8th82RG8Tu6+TBzqPNsPuirkmoE559sRx2f0n/57jOs7BR6QlLPCjnM+idPFhMz8NuOLqXd6fYCUf/YjWsf7ETDp6fhfPucbXv8U1ynlzfCkffb+cPem+T8+D2Wtj/+Tx0BwdT9zycfrMWWsn1prZRb5rrWPwe72yGw9EbifOjsP3JZnj2Jv3fszbrYzBqH4b15IndZnLD1k7P+G77JOx9ltxIystiVsfFZN2f98Jq8kBr4+ujcPa63LXk9NFyWPnmqDcUzXPQm8sxOM119V07PPtdK3mysx0OXrRDZ4qDLz5gzB70ylwn3t917Ioyx2BU++1G9v1F0QflxWWf1iVFbudLX+azU/wY7Gs/WQ+rj0Yf6HXD2eP1sJI+GRpX1+Uwu9uo5Lbld0uh9bv9cPKqc3Gf+7Ydjh+shMVbyeX0IY96czkGu8nluBwWP02exA/vCDuh/WI/bH15GNrqQf/LvdC6vhp2v09urwfn37tuOP/5IGzeitc5/WSykqqnVfr+fTZmfQyOKvU4YZ7nT8XTqv92voL3cD9Y6Paw6uPeoeSxxm8Xw/KXR8PLJFPl06pw2zIDsz8Gk7/ng1ZYSv6eRy/TZ13vOuHs6XZy25U8rsi5OZzmeA+/7Ibla/H5ZNYzvcumOq33aU7HYKXzp6mn9Z7UP+jFB+Qfp/+iFV/pdPcw/8ozIvOJXWFnYf/jVth/mf7PS+KTvaWw8Z06eLvh+OFeOB1eYLPT/WErLNw7Sk6xrOTKOK9BL3kgsPVD/A7jK14Ww85P/V+frMr3GO8k0sslXl9ybmzOvl4O60/V5dcJh58th70/pv9zpvKuY/EOeCW5wxOXbnJDulrpcq9g5sdgfDCzpJ8MvGv3rjNbz8v9TasfF/m6yd9/+dZWOCp6BoxKLrOVW7vJ7UL/lV/1PlnON/tjcIrraryM7yaX/zf1vDK2vkEv36yuY1KpY3AWtxvZ14P3M+gVvJ3/kAa9Msdg/L7l3yn+vVfl/UUtl8N7u41KHjN9dTOsPK5xfKrbPI7B+I9/vfM//d+jXh2EHfl4M0fvH523wnH5A768zNOq//69qlkfgwPlHifM8/ypflr1385XMO/7wYq3h6Wfe6YjyXGF54yFT6vu25aKZn4MxmEt4x+Huj9uh5uf7Ad5LzPF8R7FoXL1DwXvv6Y8rfdqHsdgpfOnqaf1/tQ/6I08WO98t1HqRnLqQS+5YFo3kxvA9H9eFp90JHfY8lLrn/bsH6TEK8FCxqg4SZWxrIrRO8LTsHuzzGmW/x67P+2E1uAGZuS6c1X8vlYz/7Wm/YfV+Tx4ybuOxVcADW44r0gefP1qJeyP/uvArMz6GEwezKxfS+6AMx7MlD+OpzkucnST6+Otjdx/fcl2Hg7vtpIHL/E2odyDw+nN4Ric4roaL9/lGv91KvP6Eu9Maxt3ZnQdy1LmGJzJ7Ub29aD+J3qTr3OFb+drvcynUe4YjK/a7j/pEZInJYtfHl95wDj95fA+b6MSyd+r3O38nM3hGIy3Xa1v9J/qHRdZT0YzxdMqc3s/jYzTqv3+varZH4M9ZR8nzPP8meK0PohBb673g9VvD0tfZlPcTxU9rfj76r1tqWIO94MP42CddT3NfmxR+XhPlTk+pj2t92oOx2Cl86epp/Ue1T/oJX/Jha+Oe/9vvEEa/Ox9EaVvVMe0H6/knF68Ycgf9BbTN/68Ir5XwtcbYTX9Gere+2rc7r+HxVmZv2P3OGxdS3+WPcOl9xGIP+N9Z/BeJ9k3bPWKV+7BcBZPM//7vazk9/guuYO4lRxIg5U774le718qB/9SNG7yk/XOL4dh+zet9Gfnk64vh9XeezQch50Jl8mo3OtY/P5zrr/xDmQug8J7PAajOK5mHktKgeOiyjHYebpe+RUk8Y5vafivNvN+sjyHY7DqdbV3zFZ4BcnYewDF95oZvA9X5nWuznGnyHWsTmWOwSluN6rcX1R9olf5vqnM7fzIZd6/zR5936+NsPe8/PddTZljMN4+5Pz9499J/CPQ8HJIb9sG75PUe4+6+4fhdMJ1textVPeP4v2C7lQ/T08fZr9Cr+7TqmQOx2D8urlPupPj4up7feZ4EwecjNvXeD0R79lV5Loi5Z1WjtL375XN/hiMpnmcoOSdP3UfF3mnVfV2vlZzuh+MpnnMlvkY5JLR93nN6Ppu774rT7HT6v++Wm9bKpnPMZjpXf8tZPT7JVc4rZH3r81q/en4iU3396rruWdlMz8GK54/TT2t96imQW++N3RaO+x/cjP7/ZNC/LHMRX2H0PsRsuTBtHqS0X4WNm+3eu+7N3wPkkTvvfe+Th5cxb9bwe+5+3wrLGa+N1s3nDxYCasPjsLZyL8Udl8dh73kxmDl0W7YzHvSNK1KN3Tj+ncyRb/Hs29WLr/SJx50mYNeovfS7K1wNPb1+z8ukRxY8l8xu+H00Uq4cWc3HI++D1DvvSgOwvan8UlU0e85/zoW3/A977ow21cRfgjHYOJtcgd8M+d9zIT84yJR6RiMA3De7UGOt0dh63pyRzs8DuMN+xwGvTkeg5Wvq8kxeDPvslLiewB9shn2X7Qvv/fl0+2wcnsz7H61qr+XeIe5sBUO43F66YOMtsPhH8s9C514HatFtWOw2mVR/f4iPnhZ/fooOXYuRqTeG/1+fRzOM25Dp7lvKnU737vMt8PBt+vhRu89ddL3S43v+/XyKOzeSS7/5LwquUEUV+kYPEkemOccc70nJVeH6Xg5rP3+IOzE27b4/liD27a37XDyeDP//YNK3kZ1X+yElfQYHL7fZXKedl6dhP3ftcq9B208dh+vh6WsH5Oq87RKm+cxmPg5uT3MeOzRSZ5Ixfumovcb3VdHYft29o9XxrcVWX049v5ub8/D2fe7YfWjnOuKkHtaeSrcv5c2x2NwqscJSs75U/txMeGyKH87X5c5H4PRlI/ZSj/uTe+nSvyJocKnVeNtS2lzPQaztf+wlvG4bfrT6t3/Fno+VvW06nzuWdY8j8Fq509TT+t9qv0VeqM3VsUPmL6pxoTBWpp3RxXfM+R6K8RPRe29wWF84834YOj6Ulh/sB1Wx59kvDsL+58sJzea2Xez+a8KvOzk/mJyI6ifUsZ/XWo9zPo68ee/l5ODcFYH/6iRQaD0nVaJQe/1YVi7vRNORs/aSYNeovvH/bB+azm0Pk6e4N9aDRufrYTWZ/vhTDyxiOL7Zi3dPch+A9kyr9yZcB2bdP2N/73M8VDVezsG3ybHS3xvtZJPEvKOi+rH4MiPB8QnL4U/2TqOF62xj+af06A3NPtjsOp1Nd5O9f5cctt58vjyEwX56Wvx1Vm3N7L/Jbn3Pk7J5aK+l/g+NdfG3qQ8HXZ2Pk1ux3OuE+Nyr2MzUOYYrHJZTHN/Ed87Zmn8w0wGI5K4rZzqvqns7Xzv+p5cn7Jus3v/+Jb1Xrh1KnMMTjrm4n+/+ufj9WJhIfu2LfsfqkreRsVPfby9FY4y7iP7l2FynE04Ty8+0Xgh3Ejuc+Wrwmo6rTrM+hjs61//lz7bCyfpG9fHDyyIA81Scr3f/mLC/Ub8kcr0PF1YSG7TftDfY3xCspr5ap1EvB29PeHxb8HTylTx/r262R+D1R8nCHnnT93HRYHLouzt/CzM7Ric8jHbpNO+ovTjsgvFT2vK25ZazOMY1M6T525Z761Xx2kVf25U7bRqfe45hdkfg9XOn6ae1vs0k0FvcMYUP2D6Jp3peeKfLfRR4K+Pw+74qz1+SY6oeGM1/iQjeUC9+NlhPa/qeJdc+Jlrb3xQsR4OR179cEXvxjTvylWXkStp6TutSQfAQP+Nfq/8+OykQS/+K/XDqzeQ3Re7YUt+zHi8U78Zdn9O/+eUJl3HJl1/R4+NWRo9nbkdg2+T6/CnFR7s5x4XicrHYHpd/DG5Do9/snXvX8TXwp76l+34KtBP9sPZpevY+xj0ZnsMVr2u9v/cUe+B5uVPX4uvFNkJa7+7/K+pcQy6mTkG9cWxrfR1Lv642K29jPfEGDPpOjYDZY7B8pfF7O4vTh8mx8pfjV6C05xWhdv53tfS72cyFN/HNPP9UOpS5hicdMyNfK0R8XqR/x4s/beSuHL+lbyNik8sJj42in/HCf+YNtC//VwJy3f3wunYk626T2sasz0GR7zrhNMnW/JVUPF0C91v9G4/d8PqrZWw9d34fehZ2P948rF8cn+phtPKUPX+fSqzPwaHf67s44RxE86fWo+LGi6Lq7fzszGXY7CGx2yTTvuKidfHbKVOq47blqnM4xi8qv3dZs6YF01/WpOujxeqnFa9zz2nMftjsNpl0dTTep8aMujFg2dxuhu3n3bC4tidafx+st/DoKQ4TOQ+iZl0xZh05arLyJW09J1Wse+x9y8X6mXUEwa9+Cm32e+hpz7lNn4/2e+bWM7k69ikl/WefdMqdTxUNfdjsHMcdm7fCOtyVJ0g77hIVD8G42W/GBav3QzbP4orQHzl2N2xNxVOXw149UdYyj04nN7sj8Gq19Xe9eNacr4ml5n6l8fO041LHy5U5PpX6TpX8Eluz4Tr2CyUOQZLXxYzvL+It82XvpcpTqvS7Xzh05v1v2yXOQYn/GhG9yhsiT9f9Ni49OrjCrdRveOr9w+Yk5p0vl+mfhxqVqdVxUyPwULOw+Hdkvcb8sco43VRnYdXK/U9Fv3x2Wnu36cy+2OwfxolHyeMK3D+1HZc1HRZXLmdn5GZH4M1PWbrXT5lzo9C91Na6dOSKty2VDKPY/Cy9pP1cCO+qj9zzIumP60i9799VU4rnm91PfeczuzvB6tdFk09rfepnkGvfRBW5Z3TSJ/lfVRyX+Ubut6b+yZnrHiCWVS8QMd/bC9+P3UNevENpDMPpMJPYnKuXFPphuP7Fz9Oo1sKu3kfV95T7HvsXc7yNAap08p/Aq8vqxpvVItcx+IT1ZyPBD/+Kv9Nfafyvo7B+P52t+LQOukra7nHRaL6MRivL8nf+YuMjyPvvfJo/LoRry9j59l4Bc7DauZ7DFa9rvaeCCy0xHje1/vxzJHLq+hoUf52P75Zc7Hbw0nXsdpUPQbLXhazvL+Ib6A8ellMcVqVbucLn94sHixXPQb7/9izk3VsxuuFePPkosfG5du/8rdR8WsUfVuQUnrvIXN5WJ3ZaRU1r2OwiN4D/vLDc3w/n8vnYbzMZzNgXz2tMVPev5c332Ow2uOEEQXPn1qOizovi/Hb+TrN9Rgsf3uo9O6rypwfhe6ntNKnpVS8bSlm3sfgQP8955buZr+F0oVpT6vY/W9fldOa1WOUguZ6DFa8LJp6Wu9R7a/QiwdJ/4yJZ0a5f0GoekMXn0RO9fHB8WPrb179MZ/eG6knV/rpbzPjg4K8HyOK//0D+ZHbeDqDK2k8CEq9siXeiE3xPeaeXnzgtZn5HiTxk8quDj/ph1jU8LLnQtex+NHYmZ9QN+k6UJ95HYPx/QzXrq8k52/VI2/yeTLNMdj7u2T+2Xh9KnqHW/58nMo8jsGq19XebWX2MRUHv9HjcGY/clv4Ae38jrtRpY7B0pdF/LXZ3F9c/YetGZxW3nW697UmXF7xR24/mfCqmWmVPAZPH2V/4mu8b1L3HfE6MvlHbhcvveI1W871LH6Qzcd7Yz+SVoPeoDf2CYSzOq0KZnsMThbvf6o8Lo0j2+VPLu1/wv/m92W/0mRXT+vC9PfvU5rDMRhVfZxQ6vyZ8rio+7JQL2CYhfd3DJZ7zFb6uWfvfur9DXpVb1tKm9MxGD/B++jL5bD8xbPC7+1Y+bRS8bpZ9B96y59Wfc89pzWPY7DSZdHU03qPah70Rl8GHM+kck8oqt3Q9R/s6B/FLKB3QxJfbikutHhB38p/Q/7w6iCsX58wDPTuzPPf86f3ypbk766/TDccf3UzzOVDMUZ+9Dh+T+Uuj1kOesk16mF8QJP+jzFZ/y3+HXLfmPRdJxw/aGUetH3Fr2Onj1ry92X++Fnt5nMMnv+wHVofrYeDkk9yLilwXEx1DA5uqF+m/3tUfMVl4aGw3IPDqc3pGKx6Xe3dkd3Tr2i4chzGy+B28v1kHV7t+MB44erfMX7K2q3tcJzxTfR+3C/je7ikyHWsduWPwbKXRbX7i+T7+mwxrP0h48Lo/Qje1eOl9vumiYNe3odiJLfXXy2nD1BnqOwx+CZ5wPir8fdxSmT+SFj/gXbeh2KEV8mT+MxPbx+XdxvVfy/Dut//rB2fVF65HGdzWuXN/hjM0xtgbidP+Ce+0mTM2+T2+9bNq9eJ5HYs/z2lKsg6rUQt9+/TmsMx2FPhcUL586f6cVH+tKrdztfvfR6DzR30Kt+2VDGPYzB+wMtnN0LrwfHVD1XLU/V4T5UZ9KqcVjy/pn/uOa05HYMVL4umntb7UvOgl/wlhz8WGZ9YlnvJaaUburi8Fjyd85fpp9umOi+Pwu7dlbD5NOeAaid36B+thJ3n7YuPne591PxpOHy4Gpaur4a9n/LvZuLKO/nHBuMnNa2E1QdH4Wzk1RDdV8dh986NsPJoN2zOYdCLV+7BZRAvj8nf96jZDnq9B6B3NsPBz+cXl8Xb83D6ZDOsJt+zvgr0PwGr9cVBOD0f+R3Jnzt7vh82by+F1u8O8/9VqMR1bDBg7McPWkl1Xx6GzTtzugOewzHY+X4z3EgeUBxlXFDxVXVLGf/qP6rYcZGY4hjsf1Jkch4MPrwh+XPtF/FyT86jwvej8x305nYMVr2upp80uvbNyBuIn5+FowcreviJl98nm2H/xcjl1+0ft63bm2H3q1VxneuGs8frvct29/uzMDx03/RPZ7Hgk9vC17FaVTgGS18WFe8vzo/Cdu82bz+cvBo7Jm4lTwLlE86a75smDnrb4eDb9XDj051w9DK9rU8/3TieXiu5bZl0dk6ryjHYGz6/POq9YXlP8oD95NFqWM94Et97QvH7g7BzuxU2H5+E9uByHnwSZfIk/rCu26j0jfQvXe6p7pv+6S3fHvuQmZf7YeXWWth+knxvby7+zOBYX7y1GZ6p76/KadVuHsdgonMWzgb3LVG3//dbubsXTuRdUqf3fr8rn+/1rtvDTx8dOQZXHp3K63fvjeLHbw+jbif95O+lsPn96IlWO6267t+nNY9jcKDM44TK50+F46LyaVW6na/bnI5BqQGDXunblvrN/hg8C3vxPSEfn2Xcp8dXuo29CnxE1eM9KjXoJcqfVg3PPac2v2Ow0mXR1NN6T2oe9OIVJv0xqCI3ePFVGKM/0y1afzrhgPtpJywVetnjeXh2byU9vcXkTnI9bD1OnqAUuWHsnIbD++vJA+z+Jw0N/nx8oDu8kDPFhVy/nFM5f74XNj69ERZ7p7MUlu9shf2f4nkQz9v0fPls8ntCVBVvtAcvxZ98gxf/JTD9nrK6vjvxTu/k4fj7NeS8V9jbs95lsXy9/3uXbiWXw9OsO4MLvfP1zuDTjZOuL4fV3gPdAleAwtex1Plx2Pt8cF2Ln6S8G45ndYFdMftjsPeARPy+S018wFLuuJjmGOz+8TBsj32y9VGR0z0/DOujf6fYDI+9gbkeg1Wvq+/Ow/HXG5c/fe3xSfa/sKaX3+C4XfyoFdYfHvVGjIvrk3pPtfj9rco/N1nJ61htSh6DAxUui0r3F8kDktOn22E9eSB99c9lm/a+Kf92fvR63D+/Or+MHrfJ8f7pRth7nv891qXcMTjQDWfJ+bo2ckxsPRH3TSO3ub2vO3Ysxfum9fuH4bTIY5Myt1FXLvf+8bT6+U44eH75HzuH4pPIJzuX7jv7n7Q44Risclq1ms8x2P1lb3h59x9TJH+/F5OvK/Efk/fvjd6fxdPaDgcTjsHx28Pen/s4PpZNri+jT/5HlD2teu7fpzfTY1Ao+jhhqvOn5HFR72klf6cCt/P1md/94FDR28NKzz1Pwu7wuMuottOqfttSp9kfgyOPHTIbDFJKueP9/On62NceL+e5Z8nTGpjquefU5nkMVrztbeppvQf1DnrJjenatZ3+FebVfljJeRNCfJhOHiyGtW/jpRZ/lGop+w0h8WHiGLTHMWiOY9Aex6A5jkF7HIPmOAbtcQya4xj8k1L7h2IAAAAAAAAAmB0GPQAAAAAAAMAIgx4AAAAAAABghEEPAAAAAAAAMMKgBwAAAAAAABhh0AMAAAAAAACMMOgBAAAAAAAARrwHvTdvQtjeDuGf//PZd+9eCC9fpicMAAAAAAAAvB/eg14c2v4s+SvMq08+SU8YAAAAAAAAeD/+LP2/nv76r0P4x/84hKWl+fSXf5meMAAAAAAAAPB+eA96AJDn3/27EP7NvwnhX/2rqz9Gr4o/Wv83f5P+YQAAAAAAPkwMegD8xffTjMNdHOX+/M/7r6j9W3/r4sfly8SP1gMAAAAAPnDJs1cAMBI/nCb++Hsc7+KP3P8X/8XVUU719/7e1R+jV/3bf5ueEAAAAAAAH6bkWS4AfIAGr7r7i78I4Z/9s/7YNulVd/G/x9/3T/9p/8dn45+P77UJAAAAAECDJM+AAeA9GLy/XWx7u/yPy/7dv9t/hV78c4eH/VfuAQAAAADwJyB5VgwANYs/tjp4dV0c3GKDH2kt+iOyo/3Df9h/b7vBq+7iq/cAAAAAAPgTlTxTBgAhjmaDV86NFl8VNxjnphnpxoujXfxa8TTi6cbhjlfdAQAAAABwRfIsGgCE+Go4NbyVbfBhFP/kn1yMgvFDLeJgx/vbAQAAAABQWvJsGwCEOLapV+MNij8COxjoYv/qX/VHuhifFAsAAAAAwMww6AEAAAAAAABGGPQAAAAAAAAAIwx6AAAAAAAAgBEGPQAAAAAAAMAIgx4AAAAAAABghEEPAAAAAAAAMMKgBwAAAAAAABhh0AMAAAAAAACMMOgBAAAAAAAARhj0AAAAAAAAACMMegAAAAAAAIARBj0AAAAAAADACIMeAAAAAAAAYIRBDwAAAAAAADDCoAcAAAAAAAAYYdADAAAAAAAAjDDoAQAAAAAAAEYY9AAAAAAAAAAjDHoAAAAAAACAEQY9AAAAAAAAwAiDHgAAAAAAAGCEQQ8AAAAAAAAwwqAHAAAAAAAAGGHQAwAAAAAAAIww6AEAAAAAAABGGPQAAAAAAAAAIwx6AAAAAAAAgBEGPQAAAAAAAMAIgx4AAAAAAABghEEPAAAAAAAAMMKgBwAAAAAAABhh0AMAAAAAAACMMOgBAAAAAAAARhj0AAAAAAAAACMMegAAAAAAAIARBj0AAAAAAADACIMeAAAAAAAAYIRBDwAAAAAAADDCoAcAAAAAAAAYYdADAAAAAAAAjDDoAQAAAAAAAEYY9AAAAAAAAAAjDHoAAAAAAACAEQY9AAAAAAAAwAiDHgAAAAAAAGCEQQ8AAAAAAAAwwqAHAAAAAAAAGGHQAwAAAAAAAIww6AEAAAAAAABGGPQAAAAAAAAAIwx6AAAAAAAAgBEGPQAAAAAAAMAIgx4AAAAAAABghEEPAAAAAAAAMMKgBwAAAAAAABhh0PvQvD0Lh/fXw/L1hbCwkHR9Izw7T/8bmuH1QViLl23S9ov01wAAAAAAAAqa/aDXPgzr1xfC4kcb4fB1+mvQ3p6E7VvpkDdsLRxwvjULgx4AAAAAAJhCzqB3Hg5+PT4uFez+Sfo1Qjh5uDT89bUnvNQsWzccf7nYP69ubYWjdjf99Sl0noWN+PXuHSVf/cLJg3g6q+Ggnf5CQeffb4XlCQPjyf30OlCmkevLJW9Ow+GDjbB6a3AdWgw3bq+H7aenofMu/T01qfX7noRBDwAAAAAATGHmg97wFXq3N8MzXmmWbTC+LSyGrec1jHnRTzthMfmaq38YXe7a4eBXyelc2wmF56jOaTj4Xav3tSa9YrDKMLby+Oqy2P5uMyyL3zto8Xby/b9Nf3MN6vq+C2HQAwAAAAAAU8j9kdtupxM6b8Y7DftxEIqDxJdH4r8n1Ti0FPLmLBw+3grrt41/rDcd3+JgdljTCxnbf1hNvt5i2Pkp/YWoexS24un89lnopL+U6d15OHm8GVrX0ss7/f5yfwT4rbg+iNrfbvS/3s3tcDK2X3a+20jPi8XQ+t1+OHmV/obueTj7fiespN/P4t2D0K7rlXo1fN+FMegBAAAAAIApVHgPvZFX7lX9kcO6vdjufz/O7zc3/DtsF3/lXK5uOLoXv95GeDa63P2yG24mp9P65iz9BaF7Gg7vrYUbwyFvMbRuL6f/fw3n8bvTsNt7r8DFsPHd2KzYPQ5b6ekuJ9cvuZm1D8Ja7/eIPz9Led93GQx6AAAAAABgCgx6H4raB72TsBNHr18dhNEfDD3/dq13Ots/pr+gjAxOix+thd3n57Wex8NX4N3aDadjr7CL/613Ote2wnHOK+DOvlnp/75fHyTXyPnI+75LYdADAAAAAABTYND7UNQ96LUPwmry9RYfXP5qx1/1z6fcH+t9fRg2Pt0Ie9+fXXz4RF3ncfckbN+MX0e/yq3//SWNfZDHFS/3Q6v3/Yy9AnFWJnzfpTDoAQAAAACAKcx+0BuOF2oIOgnbY8NG55fDsP2b1vDHPRc/aoX1+4fh7Mr78hX40A716q3OWTjqvd/ejfR92pKuL4fWb7bDwc9TDDXddjh5sh3WP14OS8PvYSks39kIO09Owrl8RdfF3z+zgqPp8JVtVSryfno1DXrnT/qvENSvcitx3Xp3fOW6o3TbJ+Hg0iflJlW4vPO/7zHvOuHs+72wcefiujC4Hp/Gk2TQAwAAAAAAU/iABr1uOPtm7WJkG+/W9tinmpYf9LovdsY+4GGsiq84PP9hO//rxq6vh/0/jr/mrL5Br/39bth5sDNs45P452+GtS8vfm3ny7Xe++ctfLJx6ffu/VDgh1brGPTie9D1XuW2ENafqjGtE579tv/fJ75Cb2TQW/tWfP/vzsPRV4NP5s2o6OU98fsecX4Utm8vXj2tQcn14PBHBj0AAAAAAFDdBzPobX61HW4uLIfNxyehPRju3rbD8YOV4Siz+OWxHnmKjE1vnoWNdHRb/uIgnJ5ffKXum3Y4fbob1h6VH/Tie9INvr+lO7vh6OV56A5ewdX7VNbdsHq9/98XriXf3+gb2o2q9Uduz8Ph3fi1tsLR6BmWfpKuHMAmqWHQ6zxd73+Nm9mvcjv7ptX/PRPeQy/83P9wj/h7156M/X3etcPhZ4NX5C2Gla8OLj4pN9HtxMtlL2z8vtg5XeT77nmbXJ97H5oRv/+VsPP9WTgfXJe7ndB+nl4Xri0OrzMMegAAAAAAoKwPZtCLrybb/lEtON1w/NXN9PdkvF9agbFp8GEQE0eZMkZHwvvHF+83N25k6FnM+vHWOge9wavX7h5eeoVi+w+ryde/GXZ/SX+hjGkHvXdnYb/3qsGFsPI4a9VMvNoPK73TyfmU29HhLGl80LsYWZfDVpFXH+Yp+n0nTh+lnwScN9x2kssmfbVfjEEPAAAAAACU9eEMep8dZr+P2y+DV2Mthp2f0l8bVWTQG7wHWhz00l+bVvtx+kmrN7fDSd6ryRLdH7bSkSnje6xz0Es/MOLmo9G/aTcc3Ytff+xVe0VNOeh1n6d//2sb4dmb9Belbji5nw5jSfFVj4c/t0PnTSep/0rK/qvcVsLKx/3fc2nQG/nx2OVLf/9qCn/f3eOwlY67V14xOGb4ir8kBj0AAAAAAFDWBzPo5f4YaPcobKW/Tw4gRcam4Y9oLoaVRyfZr6YrrB0OftX/ni4PZxlG/g7yU1KnGPS6vxxeek+8nc/7Q2PrtyO/9mArrMWh68Zq2Br9vY+T8yL9OrmmGvQ64fCz/t8988emR71rh2dfXIx6V7rWCjsvzobXw0vn53D8rTY8Xlbi+05/nLnQp+4OjwkGPQAAAAAAUN4H9KEY6S9JE35fobHp8iu/Fq6vhI2vD8Npu8rL1aKL72nrhyJf4+J8k6/gmmLQG77vXIUKjZHRNIPe8DpwM+z+nP5aAecvDi594nH8dNrVz/fCce/0B+f/5Vdt1vpKzBLfd6nTZdADAAAAAABT+BMa9PrOn++GtY8ufwrp0p3tcHjlE2gnKfq9D0w436YY9C5LXzl4befS14k/8hu/fqUPxIimGPQufjS5vh93DueH6fXq8ivihsPa2CccV1Hm+y51ugx6AAAAAABgCn9yg95A5+VR2Pt8JSylXzd+gMLmd/kfenDZxff0vl+hd8ngR3vHPnzj9FH8YJFW2H+Z/kJZlQe9s7Cfvtdd65uz9NemNxgoFz7eT07hwnBY+9VBKHNpXlXu+y51ugx6AAAAAABgCn+yg95Q5yTsfpq+Yu/aVjgu/EK9kkPV4JNnk+QAWNegl76H3OXvafB+f9vhuOp7B1Y9j9MP6Kj86brSxXvbjX/y7HDoq/rhHwMlv+/OdxvFT3f4Pn8MegAAAAAAoDwGvah9EFZ7fz7jU3QznD6Mr3pL/lz8kcwJQ9nFp9xmfGhCTYNe/5ViY3+Pwav27h5O/nHQLBXP41n8uG03+V6We9/Lejgc/+TZN4dhvfffFsL600mfTpGt9Pc9HAAXJ75ic3i9SWLQAwAAAAAAZTVj0Bt+wmjFHykdDnol//zIj04u3z/O/uTct8n3fyv9fQ9O9Kel1jLodcPRvfg1xkZD+aq9kioNeiPXla+O01+b0qvkPE8/JGNF/n264fjLwSsuk+/1VfrLpVT5vtth/5P0z9xKLsO36S+PuRgj+zHoAQAAAACAspox6HWehY30v9+89yz0Prj2XSec/nAyfEXaycP0U21fdUJ3ZHjrvjoJu3fTAeiT/XBW8kdS20/W0jExfrjGbjh6eX7x9bvn4ez73bB6vf/f84aeega907B7M/ka4+8r923//d22f0x/oYoqg97glYFJG98Vf7XcyaO1sP3kOJy9vrisuq/PwtHXG6GVjnmLdw9Cu8CAunCtFTYfn4R252JG7Xba4fTpXtj4fcY5XfH77v60czHW3doM+y/aF9eFt+1w8niz9/2v3NtKB2QGPQAAAAAAUF4zBr3QDScPlvvf02gjnzh6cn/sv413azM8q/QpCt1w9nh95MM1dEt39sJJ3jZUy6A3Q1UGveF7xZV7/7z8y2oxtH73LHvMGzg/Ctu3L3+a8ZWyrr8Vv++o/d3mpVfgjbf85VE4b1+8spNBDwAAAAAAlNWQQS/xrhNOHm+ElY/SEef6clh/dDL8pNfuq+Nw8GAjrN6+MXxF3cK1G6F1ZyPsPDkJ55MGoklen1z9+sn3sPr5Tjh4UeCd6xo46A1eGZj5voEZOj8fhJ3PV0NrcFkmLd1qhfV7++G49/LLgpLrxNn3+2HrN61wI31l38LCUlj+eD1sPT4KZ+Pvv5eq+n0PvT4O+/fWL77/eD37zfbF9WDkR7UZ9AAAAAAAQFkVBj0AAAAAAAAA7wuDHgAAAAAAAGCEQQ8AAAAAAAAwwqAHAAAAAAAAGGHQAwAAAAAAAIww6AEAAAAAAABGGPQAAAAAAAAAIwx6AAAAAAAAgBEGPQAAAAAAAMAIgx4AAAAAAABghEEPAAAAAAAAMMKgBwAAAAAAABhh0AMAAAAAAACMMOgBAAAAAAAARhj0AAAAAAAAACMMegAAAAAAAIARBj0AAAAAAADACIMeAAAAAAAAYIRBDwAAAAAAADDCoAcAAAAAAAAYYdADAAAAAAAAjDDoAQAAAAAAAEYY9AAAAAAAAAAjDHoAAAAAAACAkdxB7+/8y8/JuL//+y/JvP/2Lx+Qcf/Tv/4/ybz/5f96Qsb9b//3X5F5/8df/0jG/ev/95TM+3/+vzYZ9zdvO2QekIdBr8GpgYi8UiMR+aQGIvJKjUTkkxqIyCs1EpFPaiAir9RIRD6pgYi8AvIw6DU4NRCRV2okIp/UQEReqZGIfFIDEXmlRiLySQ1E5JUaicgnNRCRV0AeBr0GpwYi8kqNROSTGojIKzUSkU9qICKv1EhEPqmBiLxSIxH5pAYi8grIw6DX4NRARF6pkYh8UgMReaVGIvJJDUTklRqJyCc1EJFXaiQin9RARF4BeRj0GpwaiMgrNRKRT2ogIq/USEQ+qYGIvFIjEfmkBiLySo1E5JMaiMgrIA+DXoNTAxF5pUYi8kkNROSVGonIJzUQkVdqJCKf1EBEXqmRiHxSAxF5BeRh0GtwaiAir9RIRD6pgYi8UiMR+aQGIvJKjUTkkxqIyCs1EpFPaiAir4A8DHoNTg1E5JUaicgnNRCRV2okIp/UQEReqZGIfFIDEXmlRiLySQ1E5BWQh0GvwamBiLxSIxH5pAYi8kqNROSTGojIKzUSkU9qICKv1EhEPqmBiLwC8jDoNTg1EJFXaiQin9RARF6pkYh8UgMReaVGIvJJDUTklRqJyCc1EJFXQB4GvQanBiLySo1E5JMaiMgrNRKRT2ogIq/USEQ+qYGIvFIjEfmkBiLyCsjDoNfg1EBEXqmRiHxSAxF5pUYi8kkNROSVGonIJzUQkVdqJCKf1EBEXgF5GPQanBqIyCs1EpFPaiAir9RIRD6pgYi8UiMR+aQGIvJKjUTkkxqIyCsgD4Neg1MDEXmlRiLySQ1E5JUaicgnNRCRV2okIp/UQEReqZGIfFIDEXkF5GHQa3BqICKv1EhEPqmBiLxSIxH5pAYi8kqNROSTGojIKzUSkU9qICKvgDwMeg1ODUTklRqJyCc1EJFXaiQin9RARF6pkYh8UgMReaVGIvJJDUTkFZCHQa/BqYGIvFIjEfmkBiLySo1E5JMaiMgrNRKRT2ogIq/USEQ+qYGIvALyMOg1ODUQkVdqJCKf1EBEXqmRiHxSAxF5pUYi8kkNROSVGonIJzUQkVdAHga9BqcGIvJKjUTkkxqIyCs1EpFPaiAir9RIRD6pgYi8UiMR+aQGIvIKyMOg1+DUQEReqZGIfFIDEXmlRiLySQ1E5JUaicgnNRCRV2okIp/UQEReAXkY9BqcGojIKzUSkU9qICKv1EhEPqmBiLxSIxH5pAYi8kqNROSTGojIKyAPg16DUwMReaVGIvJJDUTklRqJyCc1EJFXaiQin9RARF6pkYh8UgMReQXkYdBrcGogIq/USEQ+qYGIvFIjEfmkBiLySo1E5JMaiMgrNRKRT2ogIq+APAx6DU4NROSVGonIJzUQkVdqJCKf1EBEXqmRiHxSAxF5pUYi8kkNROQVkIdBr8GpgYi8UiMR+aQGIvJKjUTkkxqIyCs1EpFPaiAir9RIRD6pgYi8AvIw6DU4NRCRV2okIp/UQEReqZGIfFIDEXmlRiLySQ1E5JUaicgnNRCRV0AeBr0GpwYi8kqNROSTGojIKzUSkU9qICKv1EhEPqmBiLxSIxH5pAYi8grIw6DX4NRARF6pkYh8UgMReaVGIvJJDUTklRqJyCc1EJFXaiQin9RARF4BeRj0GpwaiMgrNRKRT2ogIq/USEQ+qYGIvFIjEfmkBiLySo1E5JMaiMgrIA+DXoNTAxF5pUYi8kkNROSVGonIJzUQkVdqJCKf1EBEXqmRiHxSAxF5BeRh0GtwaiAir9RIRD6pgYi8UiMR+aQGIvJKjUTkkxqIyCs1EpFPaiAir4A8DHoNTg1E5JUaicgnNRCRV2okIp/UQEReqZGIfFIDEXmlRiLySQ1E5BWQh0GvwamBiLxSIxH5pAYi8kqNROSTGojIKzUSkU9qICKv1EhEPqmBiLwC8jDoNTg1EJFXaiQin9RARF6pkYh8UgMReaVGIvJJDUTklRqJyCc1EJFXQB4GvQanBiLySo1E5JMaiMgrNRKRT2ogIq/USEQ+qYGIvFIjEfmkBiLyCsjDoNfg1EBEXqmRiHxSAxF5pUYi8kkNROSVGonIJzUQkVdqJCKf1EBEXgF5GPQanBqIyCs1EpFPaiAir9RIRD6pgYi8UiMR+aQGIvJKjUTkkxqIyCsgD4Neg1MDEXmlRiLySQ1E5JUaicgnNRCRV2okIp/UQEReqZGIfFIDEXkF5GHQa3BqICKv1EhEPqmBiLxSIxH5pAYi8kqNROSTGojIKzUSkU9qICKvgDwMeg1ODUTklRqJyCc1EJFXaiQin9RARF6pkYh8UgMReaVGIvJJDUTkFZCHQa/BqYGIvFIjEfmkBiLySo1E5JMaiMgrNRKRT2ogIq/USEQ+qYGIvALyMOg1ODUQkVdqJCKf1EBEXqmRiHxSAxF5pUYi8kkNROSVGonIJzUQkVdAHga9BqcGIvJKjUTkkxqIyCs1EpFPaiAir9RIRD6pgYi8UiMR+aQGIvIKyMOg1+DUQEReqZGIfFIDEXmlRiLySQ1E5JUaicgnNRCRV2okIp/UQEReAXkY9BqcGojIKzUSkU9qICKv1EhEPqmBiLxSIxH5pAYi8kqNROSTGojIKyAPg16DUwMReaVGIvJJDUTklRqJyCc1EJFXaiQin9RARF6pkYh8UgMReQXkYdBrcGogIq/USEQ+qYGIvFIjEfmkBiLySo1E5JMaiMgrNRKRT2ogIq+APAx6DU4NROSVGonIJzUQkVdqJCKf1EBEXqmRiHxSAxF5pUYi8kkNROQVkIdBr8GpgYi8UiMR+aQGIvJKjUTkkxqIyCs1EpFPaiAir9RIRD6pgYi8AvIw6DU4NRCRV2okIp/UQEReqZGIfFIDEXmlRiLySQ1E5JUaicgnNRCRV0AeBr0GpwYi8kqNROSTGojIKzUSkU9qICKv1EhEPqmBiLxSIxH5pAYi8grIw6DX4NRARF6pkYh8UgMReaVGIvJJDUTklRqJyCc1EJFXaiQin9RARF4BeRj0GpwaiMgrNRKRT2ogIq/USEQ+qYGIvFIjEfmkBiLySo1E5JMaiMgrIA+DXoNTAxF5pUYi8kkNROSVGonIJzUQkVdqJCKf1EBEXqmRiHxSAxF5BeRh0GtwaiAir9RIRD6pgYi8UiMR+aQGIvJKjUTkkxqIyCs1EpFPaiAir4A8DHoNTg1E5JUaicgnNRCRV2okIp/UQEReqZGIfFIDEXmlRiLySQ1E5BWQh0GvwamBiLxSIxH5pAYi8kqNROSTGojIKzUSkU9qICKv1EhEPqmBiLwC8jDoNTg1EJFXaiQin9RARF6pkYh8UgMReaVGIvJJDUTklRqJyCc1EJFXQB4GvQanBiLySo1E5JMaiMgrNRKRT2ogIq/USEQ+qYGIvFIjEfmkBiLyCsjDoNfg1EBEXqmRiHxSAxF5pUYi8kkNROSVGonIJzUQkVdqJCKf1EBEXgF5GPQanBqIyCs1EpFPaiAir9RIRD6pgYi8UiMR+aQGIvJKjUTkkxqIyCsgD4Neg1MDEXmlRiLySQ1E5JUaicgnNRCRV2okIp/UQEReqZGIfFIDEXkF5GHQa3BqICKv1EhEPqmBiLxSIxH5pAYi8kqNROSTGojIKzUSkU9qICKvgDwMeg1ODUTklRqJyCc1EJFXaiQin9RARF6pkYh8UgMReaVGIvJJDUTkFZCHQa/BqYGIvFIjEfmkBiLySo1E5JMaiMgrNRKRT2ogIq/USEQ+qYGIvALyMOg1ODUQkVdqJCKf1EBEXqmRiHxSAxF5pUYi8kkNROSVGonIJzUQkVdAHga9BqcGIvJKjUTkkxqIyCs1EpFPaiAir9RIRD6pgYi8UiMR+aQGIvIKyMOg1+DUQEReqZGIfFIDEXmlRiLySQ1E5JUaicgnNRCRV2okIp/UQEReAXkY9BqcGojIKzUSkU9qICKv1EhEPqmBiLxSIxH5pAYi8kqNROSTGojIKyAPg16DUwMReaVGIvJJDUTklRqJyCc1EJFXaiQin9RARF6pkYh8UgMReQXkYdBrcGogIq/USEQ+qYGIvFIjEfmkBiLySo1E5JMaiMgrNRKRT2ogIq+APAx6DU4NROSVGonIJzUQkVdqJCKf1EBEXqmRiHxSAxF5pUYi8kkNROQVkIdBr8GpgYi8UiMR+aQGIvJKjUTkkxqIyCs1EpFPaiAir9RIRD6pgYi8AvIw6DU4NRCRV2okIp/UQEReqZGIfFIDEXmlRiLySQ1E5JUaicgnNRCRV0AeBr0GpwYi8kqNROSTGojIKzUSkU9qICKv1EhEPqmBiLxSIxH5pAYi8grIw6DX4NRARF6pkYh8UgMReaVGIvJJDUTklRqJyCc1EJFXaiQin9RARF4BeRj0GpwaiMgrNRKRT2ogIq/USEQ+qYGIvFIjEfmkBiLySo1E5JMaiMgrIA+DXoNTAxF5pUYi8kkNROSVGonIJzUQkVdqJCKf1EBEXqmRiHxSAxF5BeRh0GtwaiAir9RIRD6pgYi8UiMR+aQGIvJKjUTkkxqIyCs1EpFPaiAir4A8DHoNTg1E5JUaicgnNRCRV2okIp/UQEReqZGIfFIDEXmlRiLySQ1E5BWQh0GvwamBiLxSIxH5pAYi8kqNROSTGojIKzUSkU9qICKv1EhEPqmBiLwC8jDoNTg1EJFXaiQin9RARF6pkYh8UgMReaVGIvJJDUTklRqJyCc1EJFXQB4GvQanBiLySo1E5JMaiMgrNRKRT2ogIq/USEQ+qYGIvFIjEfmkBiLyCsjDoNfg1EBEXqmRiHxSAxF5pUYi8kkNROSVGonIJzUQkVdqJCKf1EBEXgF5GPQanBqIyCs1EpFPaiAir9RIRD6pgYi8UiMR+aQGIvJKjUTkkxqIyCsgD4Neg1MDEXmlRiLySQ1E5JUaicgnNRCRV2okIp/UQEReqZGIfFIDEXkF5GHQa3BqICKv1EhEPqmBiLxSIxH5pAYi8kqNROSTGojIKzUSkU9qICKvgDwMeg1ODUTklRqJyCc1EJFXaiQin9RARF6pkYh8UgMReaVGIvJJDUTkFZCHQa/BqYGIvFIjEfmkBiLySo1E5JMaiMgrNRKRT2ogIq/USEQ+qYGIvALyMOg1ODUQkVdqJCKf1EBEXqmRiHxSAxF5pUYi8kkNROSVGonIJzUQkVdAHga9BqcGIvJKjUTkkxqIyCs1EpFPaiAir9RIRD6pgYi8UiMR+aQGIvIKyMOg1+DUQEReqZGIfFIDEXmlRiLySQ1E5JUaicgnNRCRV2okIp/UQEReAXkY9BqcGojIKzUSkU9qICKv1EhEPqmBiLxSIxH5pAYi8kqNROSTGojIKyAPg16DUwMReaVGIvJJDUTklRqJyCc1EJFXaiQin9RARF6pkYh8UgMReQXkYdBrcGogIq/USEQ+qYGIvFIjEfmkBiLySo1E5JMaiMgrNRKRT2ogIq+APAx6DU4NROSVGonIJzUQkVdqJCKf1EBEXqmRiHxSAxF5pUYi8kkNROQVkIdBr8GpgYi8UiMR+aQGIvJKjUTkkxqIyCs1EpFPaiAir9RIRD6pgYi8AvIw6DU4NRCRV2okIp/UQEReqZGIfFIDEXmlRiLySQ1E5JUaicgnNRCRV0AeBr0GpwYi8kqNROSTGojIKzUSkU9qICKv1EhEPqmBiLxSIxH5pAYi8grIw6DX4NRARF6pkYh8UgMReaVGIvJJDUTklRqJyCc1EJFXaiQin9RARF4BeRj0GpwaiMgrNRKRT2ogIq/USEQ+qYGIvFIjEfmkBiLySo1E5JMaiMgrIA+DXoNTAxF5pUYi8kkNROSVGonIJzUQkVdqJCKf1EBEXqmRiHxSAxF5BeRh0GtwaiAir9RIRD6pgYi8UiMR+aQGIvJKjUTkkxqIyCs1EpFPaiAir4A8DHoNTg1E5JUaicgnNRCRV2okIp/UQEReqZGIfFIDEXmlRiLySQ1E5BWQh0GvwamBiLxSIxH5pAYi8kqNROSTGojIKzUSkU9qICKv1EhEPqmBiLwC8jDoNTg1EJFXaiQin9RARF6pkYh8UgMReaVGIvJJDUTklRqJyCc1EJFXQB4GvQanBiLySo1E5JMaiMgrNRKRT2ogIq/USEQ+qYGIvFIjEfmkBiLyCsjDoNfg1EBEXqmRiHxSAxF5pUYi8kkNROSVGonIJzUQkVdqJCKf1EBEXgF5GPQanBqIyCs1EpFPaiAir9RIRD6pgYi8UiMR+aQGIvJKjUTkkxqIyCsgD4Neg1MDEXmlRiLySQ1E5JUaicgnNRCRV2okIp/UQEReqZGIfFIDEXkF5GHQa3BqICKv1EhEPqmBiLxSIxH5pAYi8kqNROSTGojIKzUSkU9qICKvgDwMeg1ODUTklRqJyCc1EJFXaiQin9RARF6pkYh8UgMReaVGIvJJDUTkFZAnd9ADAAAAAAAA8GFh0AMAAAAAAACMMOgBAAAAAAAARhj0AAAAAAAAACMMegAAAAAAAIARBj0AAAAAAADACIMeAAAAAAAAYIRBDwAAAAAAADDCoAcAAAAAAAAYmcGgdxb2bq2Fw/Pk/313Erav74ST/n+Aic5fbYalB/1L7fzJWlj7Nl6Y8MEx6I5j0B3HoDuOQXccg+44Bt1xDLrjGHTHMfinYgaDXnKFWdgIzzrJ//v6IKwtbE++8rw5C8dPdsLGpzfC4v0Jv/vFdlhYWMht7UnODc7r47D7m+Ww1Pu9S2H5N7vh+HX632pxHg5+ffV7ulyB82TEycOl9M+thYNav1ct3mjffHTa+/9P7k84P6POaTi8vx6Wr/f/fku31sP209PQeZf+9/cs/h0un/8XLT3MuSTenom/11nopv/5w1XhGBxx/u1aWIznz68Pkmtzht7XvXxeXrTev/OYhXfn4fjhxWUSW/yoFVp3dsJx/PuOK3O8T3vbUqNSx+DML4vzcPjZ4OuVuy5dMvPbXq3Q9bl2RY/BKe4v3nVD+8VB2Lu3HlofLfZ/7/XlsP7wKLTfpr+nLmVO66fd9DKe4niJp/fzYdhPTm/5+nzu98aVvh8sen9Rx/lTl/PDsJ5+LwvDx141He/v3XT3g4XV9fhHXhapudw3fXiX++Rj0PC+qczznRxFnhec/7jXP534+67dCCuf74Xjud7k1HAM5h0XI85/3A3rt/rnyeJHK2Hj8UlNz0He03Hxvh5jjyl9P1hKTc+XSzwvqPx8cKDkc5Dz5+IYnOvjmerHYOeXg7A1+N57JbeNH7fC+rft9HcIZZ+jpZp6WvNU/6CX3PgOrzAv90Mr70lU8t/Xf7URth4fhtNXyQP45IYj7wa75497Yfm3z0LW+Xf66Gb2DU47uTJfWw6bTy4ebHVfn4WjR5th90VdM00nPPtiOez+kv7PcZ1nYaPSnUI8KOfzxObkwWJ6HnbD0b2FsP2i/+tSO7mzTZ7YbSZ3nu30LOy2T8LeZ8kBklyWH8L4VelO6G1yft9eC/s/n4fu4EFB9zycfrMWWh/I3ytTmWNw3Jvk+nl9Kxx9nzyBmDjoVbkeTyM5tn67GJa/PBpe13KVPd6nuW2pWaljcF6XxTSnM5fbXqHo9bluhY/BqvcXnXD0u6XQ+t1+OHnVubiNetsOxw9WwuKt5M/UNupVO61qD/6T0/oXq2H9i51w8PwsnHeP53a/N67UMVjh/qL+J0fVxSdtVx57vZfb+BpNcz9Y1Awe/8jLYp73TR/Q5V74GHS4b6ryfGei7OcF8eu34mOlkdvm7qujsJXcTh3kPG+tVY3HoDwuUu0n62H10eiA1w1nj9fDSjpE1WLex8UHchyWuh8srY7ny+WeF0x3v1vmtLrJedcKS5/uhKOX6S33u044e7odWvEfKT/0Y/CX3bB8LT6mKbNWlXyONtDU05qz+ge9eCP08X44i/9//FfFu4eFb8DzbrCLOQv7H7fC/sv0f16SXCBfLIWN79SF2A3HD/fC6fDOYHa6P2yFhXtHySmWNcdBL7nB2/ohfofxX08Ww85P/V+/Kl7Jl5IbR3HL9K7d+7Nbz9//tb/KDfjZ18th/am6rnTC4WfLYe+P6f/8EFU+BuMddnqMxD+Xd8P/Ph5spHdMx4WO07qP97zblvoVPwYT87osKp/O+7rtLXF9rtsU94Ojqt1fJOfpVzfDyuN5PGLMPq16Bqv53e+NK3MMVrm/qOf8qUcjB72ajsFss3n8U/5xcM33TR/Q5V74GLS7b6pyOSsZt4+dZ2Hz1q7+3n9OntB+kT0O16rGYzDz/IqnIe/b4/3/qu9x8YEch6Uei9as0OOfUs8LprzfLXNacTjK+MfO7o/b4eYn+2Eum17FYzAOuat/KPkdlrwsBpp6WvNW/6A38sSp891GqTusqe/g4vp8M7kTS//nZfGObyscZdwyxNOe/fjU/xcO/eBhknk9sYk32oN/hTkNuzdzTjO5kq9fS26wMq7k9TxgmV75G/B4Hqxm/gtK+w+rH8wTManiMdj9aSe0Bjf2I19Deh8PNkqdZs3He+5tS91KHIPRvC6Lyqfzfm57S12f6zbF/eCFKe4vkgeMc7vtzTitegared3vjStzDFa7v6jn/KmHvK9+H7fxdarlGMwxo8c/pf9c3fdNH8zlXuIYNLtviqpePy7LuH2M1/2vjtP/MeZdfNXznC7fGo/BrPMrvjq1PzgJyX3T4pfH+YNQUfM+Lj6I47DkY9FaFXz8U/J8mup+t8RpxR+Jzz6dOT6uqXgMVjqfKl5nm3pa81b/oBcf3Kd3JPEGePCz90VMewfXfrySc3qT77gX0zf+vCL+7PTXG2E1fX+GhYXFcON2/31Szsr8HbvHYeta+rPsGS79vH38ue47W2H/p3jlm9cNQDsc/Grw5CSeZv73myc+kck6T7t/FD/Dfmcj7D3POdDiy5WfH4Sdz1eHP8cef4Z9/eFxOM9ZzssfwPFf3gf/KjUu/06m2z4Nh4+3wvrty5fhwS8Vz8QqqhyD75I761srF/+aOXInIFW8gSt//oy+f0lG13fF9zHF8S7k37bUreQxOMWdTeeXw7D9m1a4cW1wXi6H1d57fByHnfHbqpHT6f+5wXsOJbeHn+YduxUvi4rHe0/Z63PdprgfHCpwf5Hl9GH+K/RKXe4TZJ3W8HY3vf9cGX3vvfuH4bTQaczrfm9cmWOw2v3FVOdPlcckY+/11j+Wjno/khevo1cee1U+3pO/dZX797qVPAbrvu/Oe/xT+rLIUeS+aT6383UrcQzO/b5Jv59S8du1cpdz6ecFv+yGm4NX5Yyb5z9Olr0fLH1cxMEp5/4hXi8y/q6lb6PmfXs4cnrvT8nHojUcF0O5j3+qPi8Yud8trPppZeqN6ukHVcxamWNw5P19s1p/Ov5NVzx/mnpa71FNg149f/Eyd3BXtcP+JzezfxY/edB9+NmiHmLij0fcTR5Mqyd87Wdh83ar9/4a56PvRRHfY+Pr5IYr/t0Kfs/d51thMfN9UOLP26+E1QdH4exN+kuJ7qvjsJc8EFt5tBs2Z/nEptIVPsfb5Abrpn5vhO6LnbDyyWbYf9EOncEDqXfd0Hl1EvZ/18p+z6EHS+HG3e30vZXSX3zbDkdftcJSzsuI4w346tdHyeV18aSp96a5X+cMA72XSycP9MbO7+6L7eTXkwcI6s/Fl+Vej1+3/x4pPcnf6/zn/d777Oz8lPGosRbTHYNn36yE5dEb+kKD3lY4fHEw8sAmeZDym+1w+MeMv+e050+pBzgVj3dp0m1LTaoeg1Uui+QIO320Em7c2Q3Ho++L1u30Pvxg+9N4nIzd3qTn/8G368kD2Pi+IOn7hcXL8OVR2L2TnKY8dqtdFlWP96j09bkW9T4AyL+/yBDft+3xeljKfA+9Cpd7lgmn1Xvg/PuDsBPvP+N7jA1+T3IZnjzeLPg+MhlPWGel6jFY4f6i8vlT5TFJfK+39D730nv8Pd0OK7c3w+5Xq1f/TMXjver9ez0qHoN133fnPP6pdFlkmnTfNM/b+ZpUOQbned+U/Hr8MfrVh8lj9dcjX/HteTj7fjesflTkdi25yhV6vlP1eUH64+DfjH04S+/vlPUjxnWpeAxWOi5Ows419fdPZbwasdJt1LxvD3unV/ZxXU2qHIM1HRcDhR//pJdL0VvMSs8HB0qeVpb2H9bKP7YrZfrHouWHz0TF86eppzVvtb9Cb/ROquwZN9WgF8/w+C8xeQdkfPPb663eJ8/17uTiK0DiDc31pbD+YDusXrnjPkseLC2H7Zw3xi3zyp2T+4vJjaA+hONLYVsPs75Ocqd+fzk5CHPuuGoz8gSq6pX4bXK+JQ8a5HvLdJM74NvJEx/5ZDOKf9dWuQcc8dU4OS8Fjz8zv3QnuSMevUMdPGm6exDaGdeZ7h+TB/O3lkPr4+TO9NZq2PhsJbQ+2w9nmd97ts7T9erX7ZJKH4Ovkyczt3fCyejVfNIAEp8AXUsup+SOcXjnnT6w2fk0OcZKvpl0ofOn7PWx7PGepchtS61KHoMVLov43iRLOdd9+a+jve8lefCT9efynizUdVlEE473Stfnmk1zPziQd38x7uITDxfCjeQ2Kutfwytd7mOKnlb8ey8sZN9/5v7jyNCcB72h8veDZe8vKp0/VR6TxOPl9kb2qwF6HwqQfC/jt79VjvdZ3L9XVMcxGJW+7857/FP1ssgy4b5p7rfztSpxDE7zPZe8b4qfmr76jXztW1/8ercnP14o8nxnqucF8dVSX62EG7dbofXRjeSx7kbyfa2E7bm9wrLEMVj5uJh0/xD/+9j1pupt1LxvD2t+jF1N8WOwruNioPDjn0m3DWOqPh/sKXlaynlym5z13nqzUPV+sNJ9ZsXzp6mnNW8zGfQGZ1bZM67IHVyW+GcLfQT8lY+n3w6H8Ucq4gU2/oQveUC9+NlhPSv6u+SGMfNfkuIT1PVwOPIvcFf0rlB5d1x1GbkDrHIlfpv8XT7NeDCbiA8wJ15O6rLINeFl9zlOHy6Hzb8Sl3By53z48OqNe/fFbtjK+2jrLHFQqHjdLqvcMdj/l9wrPy42zQDy5jB5Yrunf9wjS5Hzp8r1sczxnqHwbUttpjwGR8nLIh4vN8Puz+n/LKr3vayE/Vfp/1bij/Nk/ahPDZdFX97xPoPrcwXT3A/25N5fZOv2/tV/JSzf3QunVx4wVrzcM+SfVv/vnf/+Rf0fR818/6OekScUc1XyGKxwf1Hp/KnwmCSOAjczR4G++OTpyu1vheN9Nvfv1Ux9DA6Uue+e8Pin8mWRIf++6T3dztemxDE47fdc+L4pfgDJ5Nujk/tLof++Y9niZZd/OU/3vKD7Yi/s/Th2SxFvp+7tznVMKHIMVj8uJt0/jFyHUpVvoypcx2Z2e1jlMXYlRY/B+o6LnjKPf3K/r3Iynw8OTHla7e825zrmRVXvByvdZ1Y8f5p6WvPWkEEvPnBZLHZDkeWnnbA4dqMav59W3r84lBEfiGfdaBe6sky646pL0RtwoXMcdm7fCOs5g1fvMu49aJqUON30/TVaw/cNSroeXxGxEloV36w13uGq61z81MLs90TK/pTb3nud3Bl5r5reexu1wuonyxWv2+WVOQbj339JvfR7qgEk+859qvOnzhtVcbxrNdy2lDbFMXiFuizi19/KfN+gTIVvpya8z8q4rMuiwvE+m+tzedPcD/bk3V8UoH+ko+LlPkHWj48U+XvH8yn/Fe7xe57H/d64csdglfuLKudP/N9lH5MUPZ0rt78Vjvfe1xkcq7lNc5tWTPxeyhyDU993F3j8U/mykCbdN1U83md1O19aiWNwbvdN8WuMXo+zm/pyLvx3EreP8VNuP8kYL1/uh5U5fcpt0WOw+nEx4Uduu0dha+w87H0dcXldbey8/6BuD4sNaNMregzWd1z0lHn8U+hyKSbr+eDQFKfVfrKe3J/szHXMi4oeg+PK/N6hiudPU09r3uoZ9NoHYVUcuJf6bPJHJesb7ALiv1bkfNpYEWfftK48sYjfT12DXnzj8MwrUaErS8Yddy264fj+yJNm2VLYzfu48vi+Prfik5r8Szmep0V/RPmS3kvul66+P0Oi++Yk7FW9c4tvGHrlOpd/Z6mvF/0ff1i8PfZeGVG3E86/26x23S6q4jHYO+bU7x024XKX2uHgV+PnXw3nT403qup4l2q4bSmmhmNQUpdFvC2Z5RO9cl9bXhYVj/fZXJ8Lqul+MMq9vyii995B409eK17uk8jTKvbAafJ97Czv98ZVPQar3F9UO38mn19XFT2dK7e/FY73+HUq3b/XpdIxWMN9U8HHP5UvC2XifdOHdTtfTMVjcG73TfFr1DNkTrycC/+drt725A8Ts7rsUhWOwerHRX/U3sm6T4/fy9iHYlS+jfqgbg/V47q6VDkG6zsuolKPfwpdLgXJ54MjKp1W/31Ml+7uV3q7pkpqeCxa5Ji8ouJl0dTTmrfaX6EXz6z++wHEG9rBx10XU/iBzJj4cu2pPpq8m9wY3bz6Uurem3ImV/rpb6PiS+fzXqr9Af3IbTydwR1gwVe1xPcOim8ovftzgUug9+lbe+Gs1EDS/xTBze+zvn68rlU7b/SwE5+gbWa+70V8T50rT6om/b3ieVnhul3FNMfg0DSvaOr9q+jYnXsd509dN6oZx7sy9W1LFRWOwUzqshi8kfqsfhTrk/3kFAqSl8UMjvdpz8eSpjsGJ91fFCA/Ra3i5T5Jxie2xfNg8o+ULoat53lHV3yiMIf7vXGljsEK9xeJKudPlcckM/+R29HjvdL9+2wUPganvG8q8/inzh+5nXzf9AHdzldR5hj8YO6bipv8fKf684I46C3/Pmv4T77ujRkOeiOKHoPTHBenj7I/0T3e9l45RqreRn1It4fycd0MFD4G6zsuSj/+6V0u9YwtE/+hv+xpvTsPR18uh+UvnuW/N98MVX0sGv8cg16qxuvYLNU86J2Hw7uDK0w8KMs9EK826PVvSPLfhydH74BrJRewuEOIb9R6K/8NqMOrg7B+fcKdY+9GPf/9RuIdWvanv3XD8Vc3w1w+FGPkRwzi9zTp8jj/YTu0PloPB0VvfHuXV/Z7zGjxhih5YJrxSW6dn3bDinzZffykn8Ww9oeM0+p9El1yx/Ey/d8jTh/GB+jp/xgj/1u8s8v61KL4viVfzOtHbqc7Bofy7rzjJ2Dd2g7HGQ8mej+Cd+/o8nW5jvOnjhvVvOP9iilvW6oqcwxWuSwS8evmvln6u044ftC6/EC5d/7nvSl08me+Wk4fPBSQeVlUPd5zTHpCWKspj8EC9xeTtJP7UvUjK5Uu9wmyTis+cMr70Ifwaj+sfagfilHyfrD0/UWi0vlT5TFJ7w3nk/Mw6yJt94/rK3/HSsd7lfv3WShxDE5x31T68U/Vy+KKYvdNH8TtfFVljsG53TclktvnOt4Hq8jznfj3rvS8IL56M2v4z/tvtSpxDE5zXLx5FjZ+ldxfjl/u6QcIXX0cUfE2ap63hxUf19WuzDFY03FR+vFP73Ip8ryg+vPBocKnlYgfjvTZjdB6cBwufdL0XFV/LMqgN6Liac1bzYPe6I+exAfi5f4VqNKg10luzAuezvnL9FOsUp34UeN3V8Lm05wb2/hR6h+thJ3nIx+l3vvI8dNw+HA1LF1fDXs/5d81xn9BmvxjMt3Mj6ffvXMj5+Pp6zX6Uv14eeR9353vN8ON29vhKOPYiK8mWHogLs/0jaNbv9sPJ68uX3DdN/1PG1q+vXfpBj1+gtLSpzvhuJ3+/pGPfV+6vR7Wsn7k6fwobN8eO63kz7Zf7IfNW8mNe9Yd7dvk+ntnMxz8nH40fe/XzsPpk82wqh5gxU+zSp5obT45vbiODT6uPX5a2mfVXn1a3nTH4FDuANINZ4/Xe9f93e/Pwvng6785C0fJdXhR3anXcf6UvFGtdLyPKnHbUqcyx2Cly6In3t60QuuLg3A6/EOJeJk8T46N3jFzePmBa3r+H3y7Hm4kx+LRy/TYSD95Ld5OtZLjXZ1dZS+Lysd7lrkOetMdg4XuL17uh5Vba2H7yUlov7n44t3zweW+GZ7Js7bC5V7xtHoPnH5/EHZut8Lm4+TPDq6Hg0+U+2g9HE48FN/PoFfuGEyUvb9IVD5/qjwmiX/mk/6PlA7/TLf//bVub4bdr1av3v5WPd4r3L/Xr8QxWPG+qfLjnyqXxbjC903zvZ2vU6ljcI73TVHvze3H73Oj+CPayZ/fSa7/m9/nPy8o9nyn+vOC+J5dqw+OQ3vwM+S924jjsHNnPXs4q1XJ+8Epjove8PnlUTgf/Ll3nXDyaDWsZz6+r3AbNdfbw6qP6+pV9n6wjuOi2PPlEenlMulI6qn6fHCg8Gmdhb34fqqPzzJuJ+Orp6/+VEP9qj8WZdAbUfG05q3mQS9eYdKXARc5A+K/QsR/dclp/emEM/6nnbBU6EfizsOzeyvp6cU3O14PW4+TO8n825a+wZuzf7SYfl/9Px+f4AzvQDLFhbz4y4d7b8z86Y2w2DudpbB8Zyvs/xTPg3jepufLhJ99n0a80R685HjSFb/3gGTwPWWV9YAlucM9fbod1pMbvf7fdSEsftQKq5/vhIPnlx9g9SV3cPH3D98gP543G2EvuePovOu/lLj363cOrv5IxZXTGj1fc7w9613uy9f7X3vpVnKZP826gU6cH4e9z1eGb6od/z7r9w/CSbwxjYNCetrbPxa8Ra2k5DE45uTh+Htn5Lzn2Ov4910dnj+9v+/Do4snpuMqnT8nYTf9+pnJ42GK432g8G1Lvcocg0NlL4tU/43gB5/ul3R9OTkG95IHq6NnVPyXzfS/p9enzi+HYXv4qYDJ+ftpciw+z/o+q1wWUxzvI0pdn2szzTFY4v6imzwZeLJz6fJb/GglbHxd1+U+osxpjdyv9667yeV1/PVGWBncfyantX7/MJzKkxq9rmV0fbfUbVoVlY7BovcXU50/qSqPSdI/o24jLu7L4/Ex7fGeKH3/XreSx2CF+6apHv8UvizS3z+u5H3TfG7n61XsGHwf902psfvc3n3Ux/HPJ8fu4B+iRk3xfKfq84LzH0f+3LUbYSW5zI+zzoraVbgfrHxc9B8vrKW3h/G+aetJzmP1qPBt1Hu8Paz4uK4uxY7BMWWPi0uS87rQ45+qzwsSpZ8PVjmtkeMyMz3E16vcMXj+dF18n6OpY6/aZdHU03qf6h30zg/D2rWd/hXm1X5Yufth/WUx2cmDxbD2bbzU4sv5l7LfbBYfJo5BexyD5jgG7XEMmuMYtMcxaI5j0B7HoDmOwT8ptX8oBgAAAAAAAIDZYdADAAAAAAAAjDDoAQAAAAAAAEYY9AAAAAAAAAAjDHoAAAAAAACAEQY9AAAAAAAAwAiDHgAAAAAAAGCEQQ8AAAAAAAAwwqAHAAAAAAAAGGHQAwAAAAAAAIww6AEA3r+//usQ/vk/v+jevRBevkz/IwAAAABgFIMeAOD9+Ju/CeHBgxD+yT9J7o2Su6PxPvkk/Y0AAAAAgFHJMyYAACqKo9y/+Tch/MVfXH6FXRzjlpZ0f+/vXR3vYn/7b1/+fX/5l+mJAAAAAABGJc+gzLx5E8L29uUnjh9S/IgYgCaJt7lxsDs87N/G/bN/1h/b/sE/uDrIVS1+rXi7Hk8LAAAAADBR8kzKTHxCqZ4Qfij943+cfqMAYGTwjyWDV9ZlvYourzjMjb7CLhYHwNF/9BgUX30Xh0JGPAAAAAAoLXkGZia+cXoczcafNH4o8SNiABzFD6FQI91ogx+J/fM/749y8cds4ygXf+wWAAAAADA3yTM0AMCfvNF/LFldvTzYxf8GAAAAAPhgMOgBAAAAAAAARhj0AAAAAAAAACMMegAAAAAAAIARBj0AAAAAAADACIMeAAAAAAAAYIRBDwAAAAAAADDCoAcAAAAAAAAYYdADAAAAAAAAjDDoAQAAAAAAAEYY9AAAAAAAAAAjDHoAAAAAAACAEQY9AAAAAAAAwAiDHgAAAAAAAGCEQQ8AAAAAAAAwwqAHAAAAAAAAGGHQAwAAAAAAAIww6AEAAAAAAABGGPQAAAAAAAAAIwx6AAAAAAAAgBEGPQAAAAAAAMAIgx4AAAAAAABghEEPAAAAAAAAMMKgBwAAAAAAABhh0AMAAAAAAACMMOgBAAAAAAAARhj0AAAAAAAAACMMegAAAAAAAIARBj0AAAAAAADACIMeAAAAAAAAYIRBDwAAAAAAADDCoAcAAAAAAAAYYdADAAAAAAAAjDDoAQAAAAAAAEYY9AAAAAAAAAAjDHoAAAAAAACAEQY9AAAAAAAAwAiDHgAAAAAAAGCEQQ8AAAAAAAAwwqAHAAAAAAAAGGHQAwAAAAAAAIww6AEAAAAAAABGGPQAAAAAAAAAIwx6AAAAAAAAgBEGPQAAAAAAAMAIgx4AAAAAAABghEEPAAAAAAAAMMKgBwAAAAAAABhh0AMAAAAAAACMMOgBAAAAAAAARhj0AAAAAAAAACMMegAAAAAAAIARBj0AAAAAAADACIMeAAAAAAAAYIRBDwAAAAAAADDCoAcAAAAAAAAYYdADAAAAAAAAjDDoAQAAAAAAAEYY9AAAAAAAAAAjDHoAAAAAAACAEQY9AAAAAAAAwAiDHgAAAAAAAGCEQQ8AAAAAAAAwwqAHAAAAAAAAGGHQAwAAAAAAAIww6AEAAAAAAABGGPQAAAAAAAAAIwx6AAAAAAAAgBEGPQAAAAAAAMAIgx4AAAAAAABghEEPAAAAAAAAMMKgBwAAAAAAABhh0AMAAAAAAACMMOgBAAAAAAAARhj0AAAAAAAAACMMegAAAAAAAIARBj0AAAAAAADACIMeAAAAAAAAYIRBDwAAAAAAADDCoAcAAAAAAAAYYdADAAAAAAAAjDDoAQAAAAAAAEYY9AAAAAAAAAAjDHoAAAAAAACAEQY9AAAAAAAAwAiDHgAAAAAAAGCEQQ8AAAAAAAAwwqAHAAAAAAAAGGHQAwAAAAAAAIww6AEAAAAAAABGGPQAAAAAAAAAIwx6AAAAAAAAgBEGPQAAAAAAAMAIgx4AAAAAAABghEEPAAAAAAAAMMKgBwAAAAAAABhh0AMAAAAAAACMMOgBAAAAAAAARhj0AAAAAAAAACMMegAAAAAAAIARBj0AAAAAAADACIMeAAAAAAAAYIRBDwAAAAAAADDCoAcAAAAAAAAYYdADAAAAAAAAjDDoAQAAAAAAAEYY9AAAAAAAAAAjDHoAAAAAAACAEQY9AAAAAAAAwAiDHgAAAAAAAGCEQQ8AAAAAAAAwwqAHAAAAAAAAGGHQAwAAAAAAAIww6AEAAAAAAABGGPQAAAAAAAAAIwx6AAAAAAAAgBEGPQAAAAAAAMAIgx4AAAAAAABghEEPAAAAAAAAMMKgBwAAAAAAABhh0AMAAAAAAACMMOgBAAAAAAAARhj0AAAAAAAAACMMegAAAAAAAIARBj0AAAAAAADACIMeAAAAAAAAYIRBDwAAAAAAADDCoAcAAAAAAAAYYdADAAAAAAAAjDDoAQAAAAAAAEYY9AAAAAAAAAAbIfz/OfVmJFpx47IAAAAASUVORK5CYII=;" vertex="1" parent="1">
          <mxGeometry x="140" y="740" width="741.42" height="352" as="geometry" />
        </mxCell>
      </root>
    </mxGraphModel>
  </diagram>
</mxfile>
